<?xml version="1.0" encoding="iso-8859-1"?>
<!-- Generator: Adobe Illustrator 19.0.0, SVG Export Plug-In . SVG Version: 6.00 Build 0)  -->
<svg version="1.1" id="Capa_1" xmlns="http://www.w3.org/2000/svg" xmlns:xlink="http://www.w3.org/1999/xlink" x="0px" y="0px"
	 viewBox="0 0 377.6 377.6" style="enable-background:new 0 0 377.6 377.6;" xml:space="preserve">
<g>
	<g>
		<path d="M331.6,123.2H46.8c-3.2,0-6.4,2.4-6.4,6.4v213.6c0,3.2,2.4,6.4,6.4,6.4h285.6c3.2,0,6.4-2.4,6.4-6.4V128.8
			C338,125.6,334.8,123.2,331.6,123.2z M326,336.8H52.4V135.2H326V336.8z"/>
	</g>
</g>
<g>
	<g>
		<path d="M369.2,94.4h-64.8l-89.6-57.6c0.8-3.2,1.6-6.4,1.6-9.6c0-15.2-12-27.2-27.2-27.2S162,12,162,27.2c0,3.2,0.8,6.4,1.6,9.6
			L73.2,94.4H8.4c-3.2,0-6.4,2.4-6.4,6.4v270.4c0.8,4,3.2,6.4,6.4,6.4h360.8c3.2,0,6.4-2.4,6.4-6.4V100.8
			C375.6,97.6,373.2,94.4,369.2,94.4z M189.2,12c8.8,0,15.2,7.2,15.2,15.2c0,8.8-7.2,15.2-15.2,15.2c-8.8,0-15.2-7.2-15.2-15.2
			C174,19.2,180.4,12,189.2,12z M170,47.2c4.8,4.8,12,8,19.2,8s13.6-3.2,19.2-8l74.4,48H95.6L170,47.2z M363.6,365.6H14.8V107.2
			h348.8V365.6z"/>
	</g>
</g>
<g>
	<g>
		<path d="M145.2,255.2L126,208c-0.8-2.4-1.6-4-2.4-5.6c-0.8-1.6-1.6-2.4-2.4-4c-0.8-1.6-1.6-2.4-3.2-3.2c-1.6-0.8-3.2-0.8-4.8-0.8
			c-2.4,0-4,0-4.8,0.8c-1.6,0.8-2.4,1.6-3.2,3.2c-0.8,1.6-1.6,3.2-2.4,4.8s-1.6,3.2-1.6,4.8l-18.4,47.2c-0.8,1.6-1.6,3.2-1.6,4.8
			c0,0.8-0.8,2.4-0.8,3.2c0,1.6,0.8,3.2,2.4,4.8c0.8,1.6,2.4,2.4,4.8,2.4c2.4,0,4-0.8,4.8-1.6c0.8-1.6,2.4-4,3.2-7.2l3.2-9.6h29.6
			l3.2,8.8c0.8,0.8,0.8,2.4,1.6,4c0.8,1.6,1.6,2.4,1.6,3.2c0.8,0.8,1.6,1.6,2.4,1.6c0.8,0.8,1.6,0.8,3.2,0.8s4-0.8,4.8-2.4
			c0.8-1.6,2.4-3.2,2.4-4.8S146.8,259.2,145.2,255.2z M102.8,240l10.4-29.6l11.2,29.6H102.8z"/>
	</g>
</g>
<g>
	<g>
		<path d="M205.2,230.4c7.2-3.2,11.2-8.8,11.2-16c0-2.4,0-4-0.8-6.4c-0.8-1.6-1.6-4-3.2-4.8c-1.6-1.6-3.2-3.2-4.8-4
			c-2.4-1.6-4-2.4-7.2-2.4s-6.4,0-9.6,0h-23.2c-3.2,0-5.6,0.8-7.2,2.4c-1.6,1.6-2.4,4-2.4,7.2v54.4c0,3.2,0.8,5.6,2.4,7.2
			c1.6,0,3.2,0.8,6.4,0.8h22.4c4,0,7.2,0,10.4-0.8c3.2,0,5.6-0.8,8-1.6c3.2-1.6,6.4-4,8.8-7.2c2.4-3.2,3.2-7.2,3.2-11.2
			C219.6,239.2,214.8,233.6,205.2,230.4z M173.2,207.2h12c5.6,0,9.6,0.8,12,1.6c2.4,1.6,4,4,4,7.2c0,1.6-0.8,3.2-1.6,4.8
			s-2.4,3.2-4.8,4c-2.4,0.8-4.8,0.8-8.8,0.8h-12.8V207.2z M188.4,257.6h-16v-20.8h0.8h15.2c4.8,0,8.8,0.8,11.2,2.4c2.4,1.6,4,4,4,8
			C203.6,254.4,198.8,257.6,188.4,257.6z"/>
	</g>
</g>
<g>
	<g>
		<path d="M292.4,241.6c-1.6-1.6-2.4-1.6-4.8-1.6c-2.4,0-3.2,0.8-4.8,1.6c-0.8,1.6-1.6,2.4-2.4,4.8c-1.6,4-4,7.2-6.4,9.6
			c-3.2,2.4-6.4,3.2-10.4,3.2s-7.2-0.8-10.4-2.4c-3.2-1.6-4.8-4.8-6.4-8c-1.6-4-2.4-8.8-2.4-14.4c0-8.8,1.6-15.2,5.6-19.2
			c3.2-4.8,8-7.2,14.4-7.2c4,0,7.2,0.8,9.6,2.4c2.4,1.6,4.8,4.8,6.4,8c0.8,2.4,2.4,4,3.2,4.8s2.4,1.6,4,1.6c1.6,0,3.2-0.8,4-1.6
			c0.8-1.6,1.6-2.4,1.6-4.8c0-3.2-1.6-6.4-4-9.6c-2.4-3.2-5.6-6.4-10.4-8.8c-4.8-2.4-9.6-3.2-16-3.2c-4.8,0-9.6,0.8-13.6,2.4
			c-4,1.6-8,4-11.2,7.2s-5.6,7.2-7.2,12c-1.6,4.8-2.4,9.6-2.4,16c0,3.2,0,7.2,0.8,10.4c0.8,1.6,1.6,4.8,3.2,7.2
			c1.6,3.2,3.2,5.6,4.8,8c2.4,2.4,4.8,4.8,7.2,6.4c2.4,1.6,5.6,2.4,8.8,3.2c3.2,0.8,6.4,0.8,10.4,0.8c4.8,0,9.6-0.8,13.6-2.4
			c4-1.6,7.2-4,9.6-6.4c2.4-2.4,4-5.6,5.6-8c0.8-2.4,1.6-4.8,1.6-7.2C294,244.8,293.2,243.2,292.4,241.6z"/>
	</g>
</g>
<g>
</g>
<g>
</g>
<g>
</g>
<g>
</g>
<g>
</g>
<g>
</g>
<g>
</g>
<g>
</g>
<g>
</g>
<g>
</g>
<g>
</g>
<g>
</g>
<g>
</g>
<g>
</g>
<g>
</g>
</svg>
