<?xml version="1.0" encoding="iso-8859-1"?>
<!-- Generator: Adobe Illustrator 19.0.0, SVG Export Plug-In . SVG Version: 6.00 Build 0)  -->
<svg fill="white" version="1.1" id="Capa_1" xmlns="http://www.w3.org/2000/svg" xmlns:xlink="http://www.w3.org/1999/xlink" x="0px" y="0px"
	 viewBox="0 0 389.6 389.6" style="enable-background:new 0 0 389.6 389.6;" xml:space="preserve">
<g>
	<g>
		<path d="M267.6,143.2c-2.4-2.4-6.4-2.4-8.8,0l-56,56c-2.4-0.8-4.8-1.6-7.2-1.6c-13.6,0-23.2,10.4-23.2,23.2
			c0,10.4,7.2,19.2,16.8,21.6v71.2c0,3.2,2.4,6.4,6.4,6.4c4,0,6.4-2.4,6.4-6.4v-71.2c9.6-2.4,16.8-11.2,16.8-21.6
			c0-5.6-2.4-10.4-5.6-14.4l54.4-54.4C270,149.6,270,145.6,267.6,143.2z M194.8,231.2c-5.6,0-10.4-4.8-10.4-10.4
			c0-5.6,4.8-10.4,10.4-10.4s10.4,4,10.4,10.4C205.2,226.4,200.4,231.2,194.8,231.2z"/>
	</g>
</g>
<g>
	<g>
		<path d="M287.6,340c36-28,58.4-71.2,58.4-119.2c0-81.6-64.8-148-145.6-151.2v-8h68c3.2,0,6.4-2.4,6.4-6.4c0-30.4-36-55.2-80-55.2
			s-80,24.8-80,55.2c0,3.2,2.4,6.4,6.4,6.4h68v8c-80.8,3.2-145.6,69.6-145.6,151.2c0,48.8,23.2,92,58.4,119.2l-30.4,39.2
			c-2.4,2.4-1.6,6.4,0.8,8.8c0.8,0.8,2.4,1.6,4,1.6c1.6,0,3.2-0.8,4.8-2.4l30.4-40c24,16,52,24.8,83.2,24.8s59.2-9.6,83.2-24.8
			l30.4,40c0.8,1.6,3.2,2.4,4.8,2.4c1.6,0,2.4-0.8,4-1.6c2.4-2.4,3.2-5.6,0.8-8.8L287.6,340z M126.8,49.6
			c4.8-21.6,33.6-37.6,68-37.6c34.4,0,63.2,16,68,37.6H126.8z M201.2,360v-20.8c0-3.2-2.4-6.4-6.4-6.4s-6.4,2.4-6.4,6.4V360
			c-72-3.2-129.6-61.6-132.8-133.6h20.8c3.2,0,6.4-2.4,6.4-6.4c0-3.2-2.4-6.4-6.4-6.4H55.6c3.2-72,60.8-130.4,132.8-132.8v20.8
			c0,3.2,2.4,6.4,6.4,6.4s6.4-2.4,6.4-6.4V80.8c72,4,129.6,61.6,132.8,133.6h-20.8c-3.2,0-6.4,2.4-6.4,6.4c0,3.2,2.4,6.4,6.4,6.4
			H334C330.8,299.2,273.2,357.6,201.2,360z"/>
	</g>
</g>
<g>
</g>
<g>
</g>
<g>
</g>
<g>
</g>
<g>
</g>
<g>
</g>
<g>
</g>
<g>
</g>
<g>
</g>
<g>
</g>
<g>
</g>
<g>
</g>
<g>
</g>
<g>
</g>
<g>
</g>
</svg>
