<?xml version="1.0" encoding="iso-8859-1"?>
<!-- Generator: Adobe Illustrator 19.0.0, SVG Export Plug-In . SVG Version: 6.00 Build 0)  -->
<svg version="1.1" id="Capa_1" xmlns="http://www.w3.org/2000/svg" xmlns:xlink="http://www.w3.org/1999/xlink" x="0px" y="0px"
	 viewBox="0 0 371.238 371.238" style="enable-background:new 0 0 371.238 371.238;" xml:space="preserve">
<g>
	<g>
		<path d="M309.638,157.121c0.4-36-20.4-66.8-50.4-81.6c0.4-0.8,0.8-2,0.8-3.2c0-23.2-18.8-42-42-42h-65.2c-23.2,0-42,18.8-42,42
			c0,1.2,0.4,2,0.8,3.2c-29.6,14.8-50.4,45.6-50.4,81.6v78.8c0,24.4,10,46.8,25.6,63.2l-22.8,36c-2,2.8-0.8,6.8,2,8.8
			c1.2,0.8,2.4,0.8,3.2,0.8c2,0,4-1.2,5.2-2.8l21.6-34.4c15.2,12,34.4,19.2,55.6,19.2h67.6c20.8,0,40-7.2,55.6-19.2l22.8,34.4
			c1.2,2,3.2,2.8,5.2,2.8c1.2,0,2.4-0.4,3.6-1.2c2.8-2,3.6-6,1.6-8.8l-24-36c16-16.4,25.6-38.4,25.6-63.2V157.121z M152.838,43.121
			h65.2c15.6,0,28,12,29.2,27.2c-8.8-2.8-18-4.4-28-4.4h-67.2c-9.6,0-19.2,1.6-28,4.4C124.838,55.521,137.638,43.121,152.838,43.121
			z M297.638,235.521c0,43.2-35.2,78-78,78h-67.6c-43.2,0-78-35.2-78-78v-78.4c0-43.2,35.2-78,78-78h67.6c43.2,0,78,35.2,78,78
			V235.521z"/>
	</g>
</g>
<g>
	<g>
		<path d="M211.638,95.121h-52c-39.2,0-71.2,32-71.2,71.2v60.4c0,39.2,32,71.2,71.2,71.2h52c39.2,0,71.2-32,71.2-71.2v-60.8
			C282.838,126.721,250.838,95.121,211.638,95.121z M270.038,226.721c0,32.4-26.4,58.4-58.4,58.4h-52c-32.4,0-58.4-26.4-58.4-58.4
			v-60.8c0-32.4,26.4-58.4,58.4-58.4h52c32.4,0,58.4,26.4,58.4,58.4V226.721z"/>
	</g>
</g>
<g>
	<g>
		<path d="M94.838,57.521c-1.6-3.2-5.2-4.8-8.4-3.2c-2,0.8-50.4,22.8-53.2,72c0,3.6,2.4,6.4,6,6.8h0.4c3.2,0,6-2.4,6.4-6
			c2.4-41.6,45.2-61.2,45.6-61.2C94.838,64.321,96.438,60.721,94.838,57.521z"/>
	</g>
</g>
<g>
	<g>
		<path d="M75.638,30.721c-1.2-3.2-4.8-4.8-8-4c-2.8,0.8-64,23.2-67.6,86c-0.4,3.6,2.4,6.4,6,6.8h0.4c3.2,0,6-2.4,6.4-6
			c2.8-54,56.4-74,58.8-74.8C74.838,37.521,76.438,33.921,75.638,30.721z"/>
	</g>
</g>
<g>
	<g>
		<path d="M284.038,54.321c-3.2-1.6-6.8,0-8.4,3.2c-1.6,3.2,0,6.8,3.2,8.4c0.4,0,43.2,19.6,45.6,61.2c0,3.2,2.8,6,6.4,6h0.4
			c3.6,0,6-3.2,6-6.8C334.438,77.121,286.038,55.521,284.038,54.321z"/>
	</g>
</g>
<g>
	<g>
		<path d="M303.238,27.121c-3.2-1.2-6.8,0.4-8,4c-1.2,3.2,0.4,6.8,4,8c0.4,0,56,20.4,59.2,74.8c0,3.2,2.8,6,6.4,6h0.4
			c3.6-0.4,6-3.2,6-6.8C366.838,50.321,305.638,27.921,303.238,27.121z"/>
	</g>
</g>
<g>
	<g>
		<path d="M192.038,179.121v-50.4c0-3.6-2.8-6.4-6.4-6.4c-3.6,0-6.4,2.8-6.4,6.4v50.8c-10,2.8-17.6,12-17.6,23.2
			c0,6,2.4,11.6,6,15.6l-22.4,31.2c-2,2.8-1.2,6.8,1.6,8.8c1.2,0.8,2.4,1.2,3.6,1.2c2,0,4-0.8,5.2-2.8l22.4-31.6
			c2.4,0.8,4.8,1.2,7.6,1.2c13.2,0,24-10.8,24-24C209.638,191.121,202.038,181.921,192.038,179.121z M185.638,213.521
			c-6.4,0-11.6-5.2-11.6-11.6c0-6.4,5.2-11.6,11.6-11.6c6.4,0,11.6,5.2,11.6,11.6C197.238,208.721,192.038,213.521,185.638,213.521z
			"/>
	</g>
</g>
<g>
</g>
<g>
</g>
<g>
</g>
<g>
</g>
<g>
</g>
<g>
</g>
<g>
</g>
<g>
</g>
<g>
</g>
<g>
</g>
<g>
</g>
<g>
</g>
<g>
</g>
<g>
</g>
<g>
</g>
</svg>
