
<!-- Generator: Adobe Illustrator 19.0.0, SVG Export Plug-In . SVG Version: 6.00 Build 0)  -->
<svg version="1.1" id="Capa_1" xmlns="http://www.w3.org/2000/svg" xmlns:xlink="http://www.w3.org/1999/xlink" x="0px" y="0px"
	 viewBox="0 0 412.155 412.155" style="enable-background:new 0 0 412.155 412.155;" xml:space="preserve">
<g>
	<g>
		<path d="M185.277,136.955c-3.2,0-6.4,2.4-6.4,6.4v34.4c0.8,3.2,3.2,6.4,6.4,6.4s6.4-2.4,6.4-6.4v-34.4
			C191.677,140.155,189.277,136.955,185.277,136.955z"/>
	</g>
</g>
<g>
	<g>
		<path d="M213.277,136.955c-3.2,0-6.4,2.4-6.4,6.4v34.4c0.8,3.2,3.2,6.4,6.4,6.4s6.4-2.4,6.4-6.4v-34.4
			C219.678,140.155,217.277,136.955,213.277,136.955z"/>
	</g>
</g>
<g>
	<g>
		<path d="M356.478,401.755c-12.8,0-24-13.6-24-29.6s10.4-29.6,24-29.6c3.2,0,6.4-2.4,6.4-6.4c0-3.2-2.4-6.4-6.4-6.4h-18.4
			c-11.2,0-20-13.6-20-29.6s9.6-29.6,20-29.6c3.2,0,6.4-2.4,6.4-6.4c0-3.2-2.4-6.4-6.4-6.4h-92.8c3.2-1.6,7.2-2.4,10.4-4.8
			c39.2-24,68-99.2,45.6-153.6c-9.6-23.2-24-37.6-41.6-40.8c-20.8-4-40.8,6.4-52.8,14.4c0.8-23.2-2.4-67.2-38.4-72.8
			c-3.2-0.8-6.4,1.6-7.2,4.8c-0.8,3.2,1.6,6.4,4.8,7.2c27.2,4,29.6,43.2,28,62.4c-12-8.8-33.6-20.8-55.2-16
			c-17.6,4-32,17.6-41.6,40.8c-22.4,53.6,6.4,129.6,45.6,153.6c3.2,2.4,7.2,4,10.4,4.8h-53.6c-17.6,0-32,18.4-32,41.6
			c0,12,4,23.2,10.4,30.4c-16,4-28.8,20.8-28.8,40.8c0,23.2,16,41.6,36,41.6h271.2c3.2,0,6.4-2.4,6.4-6.4
			C362.877,404.955,359.678,401.755,356.478,401.755z M149.277,244.155c-34.4-20.8-60.8-90.4-40.8-138.4c8-20,19.2-31.2,32.8-33.6
			c25.6-5.6,53.6,20,53.6,20.8c0.8,0.8,0.8,0.8,1.6,0.8c0,0,0.8,0,1.6,0.8h0.8h0.8c1.6,0,2.4-0.8,4-1.6c0,0,28-25.6,53.6-20.8
			c13.6,3.2,24.8,14.4,32.8,33.6c20,48-5.6,117.6-40.8,138.4c-11.2,7.2-28.8,11.2-45.6-8.8l-0.8-0.8c-0.8-0.8-0.8-0.8-1.6-0.8
			c0,0,0,0-0.8,0c-0.8,0-0.8,0-1.6,0s-0.8,0-1.6,0h-0.8c-0.8,0-1.6,0.8-1.6,0.8l-0.8,0.8
			C178.077,255.355,161.277,251.355,149.277,244.155z M216.478,259.355h-34.4c6.4-2.4,12-6.4,16.8-11.2
			C204.478,252.955,210.877,256.955,216.478,259.355z M100.478,271.355h215.2c-5.6,7.2-9.6,18.4-9.6,29.6s4,22.4,9.6,29.6h-215.2
			c-11.2,0-20-13.6-20-29.6C79.678,284.955,89.277,271.355,100.478,271.355z M85.277,401.755c-12.8,0-24-13.6-24-29.6
			s10.4-29.6,24-29.6h14.4h231.2c-6.4,7.2-10.4,18.4-10.4,29.6s4,22.4,11.2,29.6H85.277z"/>
	</g>
</g>
<g>
	<g>
		<path d="M198.877,287.355h-80c-3.2,0-6.4,2.4-6.4,6.4c0.8,4,3.2,6.4,6.4,6.4h80c3.2,0,6.4-2.4,6.4-6.4
			C205.277,290.555,202.877,287.355,198.877,287.355z"/>
	</g>
</g>
<g>
	<g>
		<path d="M198.877,356.955h-80c-3.2,0-6.4,2.4-6.4,6.4c0,3.2,2.4,6.4,6.4,6.4h80c4-0.8,6.4-3.2,6.4-6.4
			C205.277,360.155,202.877,356.955,198.877,356.955z"/>
	</g>
</g>
<g>
	<g>
		<path d="M286.877,376.155h-80.8c-3.2,0-6.4,2.4-6.4,6.4c0,3.2,2.4,6.4,6.4,6.4h80c3.2,0,6.4-2.4,6.4-6.4
			S290.077,376.155,286.877,376.155z"/>
	</g>
</g>
<g>
</g>
<g>
</g>
<g>
</g>
<g>
</g>
<g>
</g>
<g>
</g>
<g>
</g>
<g>
</g>
<g>
</g>
<g>
</g>
<g>
</g>
<g>
</g>
<g>
</g>
<g>
</g>
<g>
</g>
</svg>
