<?xml version="1.0" encoding="iso-8859-1"?>
<!-- Generator: Adobe Illustrator 19.0.0, SVG Export Plug-In . SVG Version: 6.00 Build 0)  -->
<svg fill="white" version="1.1" id="Capa_1" xmlns="http://www.w3.org/2000/svg" xmlns:xlink="http://www.w3.org/1999/xlink" x="0px" y="0px"
	 viewBox="0 0 344.8 344.8" style="enable-background:new 0 0 344.8 344.8;" xml:space="preserve">
<g>
	<g>
		<path d="M195.6,126c-0.4-0.4-0.4-0.8-0.8-1.2c-0.4-0.4-0.8-0.4-0.8-0.4h-12V62.8c0-0.4,0-0.8-0.4-0.8c0-0.4-0.4-0.4-0.8-0.4
			c-0.4,0-1.2-0.4-2-0.4s-2,0-3.6,0c-1.2,0-2,0-2.8,0s-1.2,0-2,0c-0.4,0-0.8,0-1.2,0.4c-0.4,0-0.4,0.4-0.8,0.4l-16,10.4
			c-0.4,0.4-0.8,0.4-1.2,0.8c-0.4,0.4-0.4,0.8-0.8,1.2c0,0.4-0.4,0.8-0.4,1.6c0,0.4,0,1.2,0,2.4c0,1.6,0,2.4,0,3.2
			c1.2,0.8,1.2,1.2,1.6,1.6c0.4,0.4,0.8,0.4,1.2,0.4c0.4,0,1.2-0.4,2-0.8l12-6.8v48.4h-14c-0.4,0-0.8,0-0.8,0.4
			c-0.4,0.4-0.4,0.4-0.8,1.2c-0.4,0.4-0.4,1.2-0.4,2s0,1.6,0,2.8c0,1.2,0,2,0,2.8c0,0.8,0.4,1.2,0.4,1.6c0.4,0.4,0.4,0.8,0.8,0.8
			c0.4,0,0.4,0.4,0.8,0.4H194c0.4,0,0.8,0,0.8-0.4c0.4,0,0.4-0.4,0.8-0.8c0.4-0.4,0.4-1.2,0.4-1.6c0-0.8,0-1.6,0-2.8
			c0-1.2,0-2,0-2.8S195.6,126.8,195.6,126z"/>
	</g>
</g>
<g>
	<g>
		<path d="M172.4,34c-38,0-69.2,31.2-69.2,69.2s30.8,69.2,69.2,69.2c38.4,0,69.2-31.2,69.2-69.2C241.6,64.8,210.4,34,172.4,34z
			 M172.4,159.6c-31.2,0-56.8-25.6-56.8-56.8c0-31.2,25.6-56.8,56.8-56.8s56.8,25.6,56.8,56.8C229.2,134,203.6,159.6,172.4,159.6z"
			/>
	</g>
</g>
<g>
	<g>
		<path d="M338.8,291.2l-80-131.6c10.8-16.4,16.8-35.6,16.8-56.4C275.6,46.4,229.2,0,172.4,0S69.2,46,69.2,102.8
			c0,20.8,6.4,40,16.8,56.4L6,290.8c-1.2,2.4-1.2,5.2,0.4,7.2c1.6,2,4.4,2.8,6.8,2.4l58-16.4l16.4,56.4c0.8,2.4,2.8,4.4,5.2,4.4
			c0.4,0,0.4,0,0.8,0c2.4,0,4.4-1.2,5.6-3.2l73.2-129.2l73.2,129.2c1.2,2,3.2,3.2,5.6,3.2c0.4,0,0.4,0,0.8,0c2.4-0.4,4.8-2,5.2-4.4
			l16.4-56.4l58,16.4c2.4,0.8,5.2,0,6.8-2.4C340,296,340,293.2,338.8,291.2z M25.2,284l69.2-114c6.8,8,14.8,14.8,23.6,20l-46.4,80.8
			L25.2,284z M95.6,322.4l-13.2-45.6l46.8-80.4c10,4.8,21.2,8,32.8,9.2L95.6,322.4z M82,102.8c0-50,40.4-90.4,90.4-90.4
			s90.4,40.4,90.4,90.4s-40.4,90.4-90.4,90.4S82,152.8,82,102.8z M249.2,322.4l-66.4-116.8c11.6-1.2,22.8-4.4,32.8-9.2l46.8,80.8
			L249.2,322.4z M273.2,270.8l-46.4-80.4c8.8-5.6,16.8-12.4,23.6-20l69.2,114L273.2,270.8z"/>
	</g>
</g>
<g>
</g>
<g>
</g>
<g>
</g>
<g>
</g>
<g>
</g>
<g>
</g>
<g>
</g>
<g>
</g>
<g>
</g>
<g>
</g>
<g>
</g>
<g>
</g>
<g>
</g>
<g>
</g>
<g>
</g>
</svg>
