<?xml version="1.0" encoding="iso-8859-1"?>
<!-- Generator: Adobe Illustrator 19.0.0, SVG Export Plug-In . SVG Version: 6.00 Build 0)  -->
<svg fill="white" version="1.1" id="Capa_1" xmlns="http://www.w3.org/2000/svg" xmlns:xlink="http://www.w3.org/1999/xlink" x="0px" y="0px"
	 viewBox="0 0 398.4 398.4" style="enable-background:new 0 0 398.4 398.4;" xml:space="preserve">
<g>
	<g>
		<path d="M314.8,56.8c0,0,0,0,0-0.8V12c0-6.4-6.4-12-14.4-12h-29.6c-8,0-14.4,5.6-14.4,12v44.8h-12c-3.2-22.4-23.2-40-48-40
			c-24.8,0-44.8,17.6-48,40h-12V12c0-6.4-6.4-12-14.4-12H92.4C84.4,0,78,5.6,78,12v44.8c0,0.8,0,1.6,0,2.4c-2.4,1.6-5.6,6.4-5.6,12
			v258.4c0,32,17.6,68.8,68.8,68.8h116c50.4,0,68.8-36.8,68.8-68.8V71.2C326,64,321.2,58.4,314.8,56.8z M269.2,12.8
			c0-0.8,0.8-0.8,1.6-0.8h29.6c1.6,0,1.6,0.8,2.4,0v44c0,0-0.8,0.8-2.4,0.8h-29.6c-0.8,0-1.6,0-1.6,0V12.8z M197.2,28.8
			c17.6,0,32.8,12,36,28h-72C164.4,40.8,178.8,28.8,197.2,28.8z M91.6,12.8c0-0.8,0.8-0.8,1.6-0.8h29.6c1.6,0,1.6,0.8,2.4,0v44
			c0,0-0.8,0.8-2.4,0.8H93.2c-0.8,0-1.6,0-1.6,0V12.8z M86.8,68.8h6.4h29.6h148h29.6h10.4c-0.8,0.8-0.8,1.6-0.8,3.2
			c0,76-50.4,138.4-112.8,138.4S84.4,148,84.4,72C84.4,69.6,85.2,68.8,86.8,68.8z M314,330.4c0,13.6-4,56.8-56.8,56.8H140.4
			c-52.8,0-56.8-43.2-56.8-56.8V135.2h0.8c20,51.2,63.2,86.4,112.8,86.4c52.8,0,98.4-40,116.8-96.8V330.4z"/>
	</g>
</g>
<g>
	<g>
		<path d="M174.8,265.6H126c-4,0-8,3.2-8,8v56c-0.8,10.4,5.6,20,19.2,20h25.6c13.6,0,20-9.6,20-20v-56
			C182.8,269.6,179.6,265.6,174.8,265.6z M170,329.6c0,4.8-2.4,8-8,8h-25.6c-4.8,0-8-2.4-8-8v-52h0.8H170V329.6z"/>
	</g>
</g>
<g>
	<g>
		<path d="M273.2,265.6h-48.8c-4,0-8,3.2-8,8v56c-0.8,10.4,5.6,20,19.2,20h25.6c13.6,0,20-9.6,20-20v-56
			C281.2,269.6,278,265.6,273.2,265.6z M268.4,329.6c0,4.8-2.4,8-8,8h-25.6c-4.8,0-8-2.4-8-8v-52h0.8h40.8V329.6z"/>
	</g>
</g>
<g>
	<g>
		<path d="M239.6,118.4h-84.8c-3.2,0-6.4,2.4-6.4,6.4s2.4,6.4,6.4,6.4h84.8c3.2,0,6.4-2.4,6.4-6.4
			C246,121.6,243.6,118.4,239.6,118.4z"/>
	</g>
</g>
<g>
</g>
<g>
</g>
<g>
</g>
<g>
</g>
<g>
</g>
<g>
</g>
<g>
</g>
<g>
</g>
<g>
</g>
<g>
</g>
<g>
</g>
<g>
</g>
<g>
</g>
<g>
</g>
<g>
</g>
</svg>
