<?xml version="1.0" encoding="iso-8859-1"?>
<!-- Generator: Adobe Illustrator 19.0.0, SVG Export Plug-In . SVG Version: 6.00 Build 0)  -->
<svg fill="white" version="1.1" id="Capa_1" xmlns="http://www.w3.org/2000/svg" xmlns:xlink="http://www.w3.org/1999/xlink" x="0px" y="0px"
	 viewBox="0 0 350.41 350.41" style="enable-background:new 0 0 350.41 350.41;" xml:space="preserve">
<g>
	<g>
		<path d="M345.864,135.718c-0.002-0.008-0.003-0.015-0.005-0.023C324.039,41.451,229.949-17.262,135.704,4.558
			C41.466,26.369-17.253,120.438,4.544,214.678c21.804,94.253,115.887,152.984,210.14,131.18S367.668,229.971,345.864,135.718z
			 M332.504,132.518l-89.96,20.84h-0.04c-7.679-39.687-0.306-80.811,20.68-115.36C297.246,59.783,321.963,93.484,332.504,132.518z
			 M252.784,31.838c-22.631,37.212-30.508,81.55-22.08,124.28l-113.76,26.32c-5.588-20.859-15.001-40.498-27.76-57.92
			c-12.724-17.411-28.548-32.327-46.68-44C90.275,13.561,180.448-7.314,252.784,31.838z M35.784,90.678
			c16.857,10.859,31.569,24.731,43.4,40.92c11.897,16.096,20.712,34.255,26,53.56l-90,20.84
			C7.476,166.334,14.82,125.221,35.784,90.678z M17.864,217.878l89.96-20.84c3.726,19.562,3.82,39.643,0.28,59.24
			c-3.532,19.808-10.692,38.793-21.12,56C53.018,290.49,28.379,256.838,17.864,217.878z M97.557,318.577
			c11.178-18.43,18.862-38.763,22.667-59.979c3.804-21.289,3.614-43.1-0.56-64.32l113.76-26.32
			c11.237,42.067,37.786,78.417,74.44,101.92C260.084,336.878,169.88,357.733,97.557,318.577z M314.584,259.718
			c-34.068-21.778-58.786-55.482-69.32-94.52l89.92-20.8C342.896,184.063,335.551,225.177,314.584,259.718z"/>
	</g>
</g>
<g>
</g>
<g>
</g>
<g>
</g>
<g>
</g>
<g>
</g>
<g>
</g>
<g>
</g>
<g>
</g>
<g>
</g>
<g>
</g>
<g>
</g>
<g>
</g>
<g>
</g>
<g>
</g>
<g>
</g>
</svg>
