<?xml version="1.0" encoding="iso-8859-1"?>
<!-- Generator: Adobe Illustrator 19.0.0, SVG Export Plug-In . SVG Version: 6.00 Build 0)  -->
<svg version="1.1" id="Capa_1" xmlns="http://www.w3.org/2000/svg" xmlns:xlink="http://www.w3.org/1999/xlink" x="0px" y="0px"
	 viewBox="0 0 380.104 380.104" style="enable-background:new 0 0 380.104 380.104;" xml:space="preserve">
<g>
	<g>
		<path d="M319.452,278.48h-2.76V160.04c-0.269-54.442-35.146-102.68-86.76-120l0.12-0.04c0-22.091-17.909-40-40-40
			c-22.091,0-40,17.909-40,40c-51.636,17.385-86.473,65.716-86.64,120.2v118.44h-2.76c-8.167-0.003-15.999,3.25-21.76,9.04
			l-0.32,0.36c-5.588,5.722-8.718,13.402-8.72,21.4c0.007,8.154,3.26,15.969,9.04,21.72c5.751,5.78,13.566,9.033,21.72,9.04h98.56
			v8.96c-0.002,8.21,3.265,16.084,9.08,21.88l0.36,0.32c12.088,11.782,31.407,11.64,43.32-0.32c5.819-5.794,9.087-13.669,9.08-21.88
			v-8.96h98.48c8.154-0.007,15.969-3.26,21.72-9.04c5.819-5.79,9.075-13.671,9.04-21.88
			C350.23,292.279,336.453,278.502,319.452,278.48z M184.121,15.131c15-3.275,29.815,6.229,33.091,21.229
			c-7.17-1.581-14.464-2.532-21.8-2.84h-5.36v-0.04h-4.52c-7.618,0.272-15.196,1.236-22.64,2.88
			C165.21,25.742,173.503,17.449,184.121,15.131z M75.572,160.12c0.183-61.441,48.692-111.854,110.08-114.4h2.84h1.56v0.08h1.56
			h2.84c61.388,2.546,109.897,52.959,110.08,114.4v118.28H75.572V160.12z M203.332,362.24c-7.206,7.234-18.881,7.359-26.24,0.28
			l-0.28-0.28c-3.525-3.505-5.511-8.269-5.52-13.24v-8.96h37.52l0.04,8.96C208.843,353.971,206.857,358.735,203.332,362.24z
			 M332.652,322.4c-3.489,3.491-8.225,5.449-13.16,5.44H60.652c-10.263-0.022-18.578-8.337-18.6-18.6
			c-0.01-4.799,1.84-9.415,5.16-12.88l0.28-0.24c3.473-3.496,8.193-5.467,13.12-5.48h250h8.84c10.254,0.044,18.556,8.346,18.6,18.6
			C338.071,314.17,336.128,318.905,332.652,322.4z"/>
	</g>
</g>
<g>
</g>
<g>
</g>
<g>
</g>
<g>
</g>
<g>
</g>
<g>
</g>
<g>
</g>
<g>
</g>
<g>
</g>
<g>
</g>
<g>
</g>
<g>
</g>
<g>
</g>
<g>
</g>
<g>
</g>
</svg>
