<?xml version="1.0" encoding="iso-8859-1"?>
<!-- Generator: Adobe Illustrator 19.0.0, SVG Export Plug-In . SVG Version: 6.00 Build 0)  -->
<svg fill="white" version="1.1" id="Capa_1" xmlns="http://www.w3.org/2000/svg" xmlns:xlink="http://www.w3.org/1999/xlink" x="0px" y="0px"
	 viewBox="0 0 385.401 385.401" style="enable-background:new 0 0 385.401 385.401;" xml:space="preserve">
<g>
	<g>
		<path d="M151.201,215.801l-0.04,0.04l-19-47.16c-2.64-6.76-4.36-13.76-12.84-13.76c-6.16,0-8.76,3.72-10.8,8.96l-20.56,52
			c-0.76,1.92-1.32,3.36-1.64,4.44c-1.613,3.538-0.052,7.713,3.485,9.326c2.625,1.196,5.713,0.671,7.795-1.326l7.08-16.6h29.6
			l3.4,8.96l3.48,7.16c2.539,2.857,6.913,3.114,9.769,0.576c0.135-0.12,0.265-0.245,0.391-0.375
			C154.761,224.681,153.401,221.2,151.201,215.801z M108.441,200.681l10.8-30.04l10.96,30.04H108.441z"/>
	</g>
</g>
<g>
	<g>
		<path d="M210.321,190.521c6.681-2.463,11.077-8.88,10.96-16c-0.059-8.924-6.676-16.445-15.52-17.64l-32.64-0.64
			c-6.36,0-9,2.72-9,9.04v54.8c0,6.36,2.6,9.04,8.96,9.04h22.28c3.366,0.075,6.733-0.072,10.08-0.44
			c11.24-1.64,19.24-8.76,19.24-20.36C224.681,199.494,219.894,193.561,210.321,190.521z M178.881,167.361c7.08,0,18.64-0.64,24,1.8
			c5.8,2.72,5.12,13.52-1.96,15.96c-4.48,1.56-16.4,1.04-22.04,1.04V167.361z M194.721,218.041L194.721,218.041h-16v-21.36h15.36
			c8.28,0,15.48,1.92,15.48,10.48C209.667,214.414,204.721,218.041,194.721,218.041z"/>
	</g>
</g>
<g>
	<g>
		<path d="M293.282,199.721c-0.054-0.001-0.107-0.001-0.161,0c-8,0-4.64,9.48-13.44,15.8c-8.461,5.864-20.074,3.758-25.938-4.703
			c-0.717-1.035-1.328-2.139-1.822-3.297c-5.12-12-4-40.68,17.48-40.68c13.76,0,15.6,11.64,19.56,15.4
			c3.96,3.76,16.4-1.12,6.68-14.88c-6.316-8.057-16.087-12.631-26.32-12.32c-40.72,0-44,55.56-18.64,70.8
			c10.009,5.231,21.763,5.986,32.36,2.08c8.72-3.72,16.48-12.44,16.48-21.8C299.565,202.63,296.772,199.765,293.282,199.721z"/>
	</g>
</g>
<g>
	<g>
		<g>
			<path d="M341.241,87.72H44.121c-4.094,0.026-8.009,1.681-10.88,4.6c-2.904,2.878-4.544,6.792-4.56,10.88v179
				c0.088,8.471,6.968,15.299,15.44,15.32h297.12c3.872,0.032,7.614-1.397,10.48-4l0.44-0.4c2.899-2.894,4.526-6.824,4.52-10.92
				v-179c0.006-4.116-1.636-8.063-4.56-10.96C349.237,89.351,345.323,87.726,341.241,87.72z M344.401,282.44
				c-0.006,0.857-0.351,1.677-0.96,2.28c-0.593,0.499-1.345,0.768-2.12,0.76H44.201c-1.812,0-3.28-1.469-3.28-3.28V102.96
				c-0.005-0.851,0.326-1.67,0.92-2.28c0.603-0.609,1.423-0.954,2.28-0.96h297.12v0.2c0.849,0.027,1.653,0.386,2.24,1
				c0.594,0.61,0.925,1.429,0.92,2.28V282.44z"/>
			<path d="M380.081,65.041c-3.39-3.403-7.996-5.318-12.8-5.32H18.121v-0.16c-4.588-0.048-9.022,1.654-12.4,4.76l-0.4,0.36
				c-3.447,3.427-5.365,8.1-5.32,12.96v230.24c-0.002,4.805,1.913,9.412,5.32,12.8c3.414,3.349,8.018,5.205,12.8,5.16h349.16
				c4.616-0.006,9.053-1.781,12.4-4.96l0.4-0.36c3.407-3.388,5.322-7.995,5.32-12.8V77.84
				C385.403,73.036,383.488,68.428,380.081,65.041z M373.001,307.681c-0.055,1.509-0.685,2.94-1.76,4l-0.2,0.24
				c-1.097,0.988-2.524,1.53-4,1.52H17.881c-1.503-0.048-2.931-0.663-4-1.72c-1.075-1.06-1.705-2.491-1.76-4V77.481
				c0.055-1.509,0.685-2.94,1.76-4l0.24-0.24c1.097-0.988,2.524-1.53,4-1.52h349.12c1.533,0.093,2.969,0.782,4,1.92
				c1.075,1.06,1.705,2.491,1.76,4V307.681z"/>
		</g>
	</g>
</g>
<g>
</g>
<g>
</g>
<g>
</g>
<g>
</g>
<g>
</g>
<g>
</g>
<g>
</g>
<g>
</g>
<g>
</g>
<g>
</g>
<g>
</g>
<g>
</g>
<g>
</g>
<g>
</g>
<g>
</g>
</svg>
