<?xml version="1.0" encoding="iso-8859-1"?>
<!-- Generator: Adobe Illustrator 19.0.0, SVG Export Plug-In . SVG Version: 6.00 Build 0)  -->
<svg fill="white" version="1.1" id="Capa_1" xmlns="http://www.w3.org/2000/svg" xmlns:xlink="http://www.w3.org/1999/xlink" x="0px" y="0px"
	 viewBox="0 0 338.438 338.438" style="enable-background:new 0 0 338.438 338.438;" xml:space="preserve">
<g>
	<g>
		<path d="M332.4,82.219h-27.6v-28.4c0-3.6-2.8-6.4-6.4-6.4c-27.6,0-27.6,0-58-6.4l-5.2-1.2c-5.2-1.2-10.4-1.6-15.6-1.6
			c-23.6,0-42,11.2-50,16.8c-8-5.6-26.4-17.2-50.4-17.2c-5.2,0-10.4,0.4-15.6,1.6l-5.2,1.2c-30.4,6.4-30.4,6.4-58,6.4
			c-3.6,0-6.4,2.8-6.4,6.4v28.4H6.4c-3.6,0-6.4,2.8-6.4,6.4v206c0,3.6,2.8,6.4,6.4,6.4H332c3.6,0,6.4-2.8,6.4-6.4v-206
			C338.8,85.019,336,82.219,332.4,82.219z M176,66.219c5.6-4.4,22.8-15.6,44-15.6c4.4,0,8.4,0.4,12.8,1.6l5.2,1.2
			c28.8,6.4,31.6,6.8,54.4,6.8v193.2H176V66.219z M46.8,60.219c22.8,0,25.6-0.4,54.4-6.8l5.2-1.2c4.4-0.8,8.4-1.2,12.8-1.2
			c21.2,0,38.4,11.2,44,15.6v186.8H46.8V60.219z M326,288.219H13.2v-193.6h21.2v165.2c0,3.6,2.8,6.4,6.4,6.4h128.8h128.8
			c3.6,0,6.4-2.8,6.4-6.4v-165.2H326V288.219z"/>
	</g>
</g>
<g>
	<g>
		<path d="M267.2,95.419h-62.8c-3.6,0-6.4,2.8-6.4,6.4c0,3.6,2.8,6.4,6.4,6.4h62.8c3.6,0,6.4-2.8,6.4-6.4
			C273.6,98.219,270.8,95.419,267.2,95.419z"/>
	</g>
</g>
<g>
	<g>
		<path d="M267.2,129.019h-62.8c-3.6,0-6.4,2.8-6.4,6.4s2.8,6.4,6.4,6.4h62.8c3.6,0,6.4-2.8,6.4-6.4S270.8,129.019,267.2,129.019z"
			/>
	</g>
</g>
<g>
	<g>
		<path d="M267.2,162.219h-62.8c-3.6,0-6.4,2.8-6.4,6.4s2.8,6.4,6.4,6.4h62.8c3.6,0,6.4-2.8,6.4-6.4
			C273.6,165.019,270.8,162.219,267.2,162.219z"/>
	</g>
</g>
<g>
	<g>
		<path d="M267.2,195.819h-62.8c-3.6,0-6.4,2.8-6.4,6.4c0,3.6,2.8,6.4,6.4,6.4h62.8c3.6,0,6.4-2.8,6.4-6.4
			C273.6,198.619,270.8,195.819,267.2,195.819z"/>
	</g>
</g>
<g>
	<g>
		<path d="M136.4,95.419H73.6c-3.6,0-6.4,2.8-6.4,6.4c0,3.6,2.8,6.4,6.4,6.4h62.8c3.6,0,6.4-2.8,6.4-6.4
			C142.8,98.219,140,95.419,136.4,95.419z"/>
	</g>
</g>
<g>
	<g>
		<path d="M136.4,128.619H73.6c-3.6,0-6.4,2.8-6.4,6.4c0,3.6,2.8,6.4,6.4,6.4h62.8c3.6,0,6.4-2.8,6.4-6.4
			C142.8,131.419,140,128.619,136.4,128.619z"/>
	</g>
</g>
<g>
	<g>
		<path d="M136.4,162.219H73.6c-3.6,0-6.4,2.8-6.4,6.4s2.8,6.4,6.4,6.4h62.8c3.6,0,6.4-2.8,6.4-6.4
			C142.8,165.019,140,162.219,136.4,162.219z"/>
	</g>
</g>
<g>
	<g>
		<path d="M136.4,195.819H73.6c-3.6,0-6.4,2.8-6.4,6.4c0,3.6,2.8,6.4,6.4,6.4h62.8c3.6,0,6.4-2.8,6.4-6.4
			C142.8,198.619,140,195.819,136.4,195.819z"/>
	</g>
</g>
<g>
</g>
<g>
</g>
<g>
</g>
<g>
</g>
<g>
</g>
<g>
</g>
<g>
</g>
<g>
</g>
<g>
</g>
<g>
</g>
<g>
</g>
<g>
</g>
<g>
</g>
<g>
</g>
<g>
</g>
</svg>
