<?xml version="1.0" encoding="iso-8859-1"?>
<!-- Generator: Adobe Illustrator 19.0.0, SVG Export Plug-In . SVG Version: 6.00 Build 0)  -->
<svg version="1.1" id="Capa_1" xmlns="http://www.w3.org/2000/svg" xmlns:xlink="http://www.w3.org/1999/xlink" x="0px" y="0px"
	 viewBox="0 0 336.4 336.4" style="enable-background:new 0 0 336.4 336.4;" xml:space="preserve">
<g>
	<g>
		<path d="M297.665,64.8c-14.4,0-26-11.6-26-26c0-14.4,11.6-26,26-26c3.6,0,6.4-2.8,6.4-6.4c0-3.6-2.8-6.4-6.4-6.4h-226.8
			c-21.2,0-38.4,17.2-38.4,38.4v242c0,7.2-4.2,56,35.2,56h218.8c3.6,0,6.4-2.8,6.4-6.4V77.6h4.8c3.6,0,6.4-2.8,6.4-6.4
			C303.665,67.6,300.865,64.8,297.665,64.8z M70.865,12.8h198c-4.8,5.2-8.4,12-9.6,19.6h-91.2c-3.6,0-6.4,2.8-6.4,6.4
			c0,3.6,2.8,6.4,6.4,6.4h91.2c1.2,7.6,4.8,14.4,9.6,19.6h-198c-14.4,0-26-11.6-26-26C44.865,24.4,56.465,12.8,70.865,12.8z
			 M81.665,323.6h-14c-24.9,0-22.8-42.4-22.8-43.2V67.2c6.8,6.4,16,10,26,10h10.8V323.6z M279.665,324h-185.6V77.6h185.6V324z"/>
	</g>
</g>
<g>
	<g>
		<path d="M251.265,194.4h-123.6c-3.2,0-6.4,2.8-6.4,6.4V290c0,3.6,2.8,6.4,6.4,6.4h123.6c3.6,0,6.4-2.8,6.4-6.4v-89.2
			C257.665,197.2,254.865,194.4,251.265,194.4z M245.265,283.2h-111.2v-76.4h111.2V283.2z"/>
	</g>
</g>
<g>
	<g>
		<path d="M196.465,98.8h-78.8c-3.6,0-6.4,2.8-6.4,6.4s2.8,6.4,6.4,6.4h78.8c3.6,0,6.4-2.8,6.4-6.4S200.065,98.8,196.465,98.8z"/>
	</g>
</g>
<g>
	<g>
		<path d="M196.065,128.4h-78.4c-3.6,0-6.4,2.8-6.4,6.4c0,3.6,2.8,6.4,6.4,6.4h78.8c3.2-0.4,6-3.2,6-6.4
			C202.465,131.2,199.665,128.4,196.065,128.4z"/>
	</g>
</g>
<g>
</g>
<g>
</g>
<g>
</g>
<g>
</g>
<g>
</g>
<g>
</g>
<g>
</g>
<g>
</g>
<g>
</g>
<g>
</g>
<g>
</g>
<g>
</g>
<g>
</g>
<g>
</g>
<g>
</g>
</svg>
