<?xml version="1.0" encoding="iso-8859-1"?>
<!-- Generator: Adobe Illustrator 19.0.0, SVG Export Plug-In . SVG Version: 6.00 Build 0)  -->
<svg version="1.1" id="Capa_1" xmlns="http://www.w3.org/2000/svg" xmlns:xlink="http://www.w3.org/1999/xlink" x="0px" y="0px"
	 viewBox="0 0 399.2 399.2" style="enable-background:new 0 0 399.2 399.2;" xml:space="preserve">
<g>
	<g>
		<path d="M392,364.8H80c58.4-20.8,66.4-60.8,67.2-70.4L340,83.2c8-8,12.8-17.6,14.4-27.2c1.6-10.4-0.8-20-7.2-25.6
			c-4.8-4.8-12-8-20-8c-11.2,0-24,5.6-32.8,14.4L83.2,229.6c-13.6,1.6-80,15.2-83.2,140.8c0,0.8,0,1.6,0.8,2.4
			c0,0.8,0.8,1.6,1.6,2.4s1.6,1.6,2.4,1.6c0.8,0,0.8,0,1.6,0h386.4c3.2,0,6.4-2.4,6.4-6.4C398.4,367.2,396,364.8,392,364.8z
			 M302.4,44.8c7.2-7.2,16-11.2,24.8-11.2c3.2,0,8,0.8,11.2,4c3.2,3.2,4.8,8.8,4,15.2c-0.8,7.2-4.8,14.4-11.2,20.8l-168,184
			l-44.8-44.8L302.4,44.8z M109.6,221.6l45.6,45.6l-14.4,16L93.6,236L109.6,221.6z M83.2,241.6l9.6,9.6l42.4,42.4
			c-0.8,4.8-3.2,16-13.6,28.8c-2.4-2.4-4.8-6.4-7.2-10.4c-5.6-9.6-12-21.6-28-25.6c-4-0.8-7.2-6.4-10.4-12c-4-7.2-8.8-16-17.6-21.6
			C69.6,244,78.4,242.4,83.2,241.6z M48,260c8.8,4,13.6,11.2,17.6,19.2s8.8,16,17.6,18.4c10.4,3.2,16,12,20.8,20
			c2.4,4.8,5.6,9.6,9.6,13.6c-16.8,16-47.2,31.2-101.6,33.6C15.2,307.2,31.2,276,48,260z"/>
	</g>
</g>
<g>
</g>
<g>
</g>
<g>
</g>
<g>
</g>
<g>
</g>
<g>
</g>
<g>
</g>
<g>
</g>
<g>
</g>
<g>
</g>
<g>
</g>
<g>
</g>
<g>
</g>
<g>
</g>
<g>
</g>
</svg>
