<?xml version="1.0" encoding="iso-8859-1"?>
<!-- Generator: Adobe Illustrator 19.0.0, SVG Export Plug-In . SVG Version: 6.00 Build 0)  -->
<svg fill="white" version="1.1" id="Capa_1" xmlns="http://www.w3.org/2000/svg" xmlns:xlink="http://www.w3.org/1999/xlink" x="0px" y="0px"
	 viewBox="0 0 357.6 357.6" style="enable-background:new 0 0 357.6 357.6;" xml:space="preserve">
<g>
	<g>
		<path d="M178.999,0c-64.4,0-116.4,52.4-116.4,116.4c0,24.4,8,48.8,22.8,68.8l5.6,7.2c0.8,1.2,21.6,25.2,27.2,58
			c-3.2,4.8-4.8,10-4.8,15.2c0,6.8,2.4,12.8,6.8,18c-4.4,5.2-6.8,11.2-6.8,18c0,16,14.4,29.2,31.6,29.6c4,15.2,17.6,26.4,34,26.4
			c16.4,0,30-11.2,34-26.4c17.6-0.4,31.6-13.2,31.6-29.6c0-6.8-2.4-12.8-6.8-18c4-4.8,6.8-11.2,6.8-18c0-4.4-1.2-8.4-3.2-12.4
			c2.4-13.6,8.4-41.6,22.4-57.6c5.6-6.4,6-6.8,6-6.8c16.4-20.8,25.2-46,25.2-72.4C295.399,52.4,243.399,0,178.999,0z M178.999,345.2
			c-9.2,0-17.2-5.6-20.8-13.6h41.6C196.199,339.2,188.199,345.2,178.999,345.2z M212.599,318.8h-67.2c-10.8,0-19.6-7.6-19.6-16.8
			c0-3.6,1.6-7.2,4-10c4.8,2.4,10,4,15.6,4h67.2c5.6,0,10.8-1.6,15.6-4c2.4,2.8,4,6.4,4,10.4
			C232.199,311.2,223.399,318.8,212.599,318.8z M260.199,181.2c-0.8,0.8-5.6,6.4-5.6,6.4c-16.4,18.8-23.2,49.6-26,66.4l-0.4,2.4
			l1.2,2c1.6,2.4,2.4,5.2,2.4,8c0,9.2-8.8,16.8-19.6,16.8h-66.8c-10.8,0-19.6-7.6-19.6-16.8c0-3.6,1.2-6.8,3.6-9.6l1.6-2l-0.4-2.8
			c-5.2-36.8-28-64-30.4-66.8l-5.2-7.6c-12.8-17.6-20-39.6-20-61.2c0-57.2,46.8-104,104-104s104,46.8,104,104
			C282.999,140,274.999,162.4,260.199,181.2z"/>
	</g>
</g>
<g>
	<g>
		<path d="M265.799,114.8c-9.6-57.2-54.8-80.8-56.8-82c-3.2-1.6-6.8-0.4-8.4,2.8c-1.6,3.2-0.4,6.8,2.8,8.4c0.4,0.4,41.6,22,50,72.8
			c0.4,3.2,3.2,5.2,6,5.2c0.4,0,0.8,0,1.2,0C264.199,121.6,266.199,118,265.799,114.8z"/>
	</g>
</g>
<g>
</g>
<g>
</g>
<g>
</g>
<g>
</g>
<g>
</g>
<g>
</g>
<g>
</g>
<g>
</g>
<g>
</g>
<g>
</g>
<g>
</g>
<g>
</g>
<g>
</g>
<g>
</g>
<g>
</g>
</svg>
