<?xml version="1.0" encoding="iso-8859-1"?>
<!-- Generator: Adobe Illustrator 19.0.0, SVG Export Plug-In . SVG Version: 6.00 Build 0)  -->
<svg fill="white" version="1.1" id="Capa_1" xmlns="http://www.w3.org/2000/svg" xmlns:xlink="http://www.w3.org/1999/xlink" x="0px" y="0px"
	 viewBox="0 0 385.6 385.6" style="enable-background:new 0 0 385.6 385.6;" xml:space="preserve">
<g>
	<g>
		<path d="M167.2,79.2H86.4c-8,0-14.4,6.4-14.4,14.4v61.6c0.8,8,7.2,14.4,14.4,14.4h80.8c8,0,14.4-6.4,14.4-14.4V93.6
			C181.6,85.6,175.2,79.2,167.2,79.2z M170.4,155.2c0,0.8-0.8,2.4-2.4,2.4H86.4c-0.8,0-2.4-0.8-2.4-2.4V93.6h0.8
			c0-0.8,0.8-2.4,2.4-2.4H168c0.8,0,2.4,0.8,2.4,2.4V155.2z"/>
	</g>
</g>
<g>
	<g>
		<path d="M297.6,80h-80.8c-8,0-14.4,6.4-14.4,14.4V156c0,8,6.4,14.4,14.4,14.4h80.8c8,0,14.4-6.4,14.4-14.4V94.4
			C311.2,86.4,304.8,80,297.6,80z M300,155.2h-0.8c0,0.8-0.8,2.4-2.4,2.4h-80c-0.8,0-2.4-0.8-2.4-2.4V93.6c0-0.8,0.8-2.4,2.4-2.4
			h80.8c0.8,0,2.4,0.8,2.4,2.4V155.2z"/>
	</g>
</g>
<g>
	<g>
		<path d="M101.6,226.4c-16,0-28.8,12.8-28.8,28.8S85.6,284,101.6,284s28.8-12.8,28.8-28.8C130.4,239.2,117.6,226.4,101.6,226.4z
			 M101.6,272c-8.8,0-16.8-7.2-16.8-16.8s7.2-16.8,16.8-16.8c8.8,0,16.8,7.2,16.8,16.8S110.4,272,101.6,272z"/>
	</g>
</g>
<g>
	<g>
		<path d="M282.4,226.4c-16,0-28.8,12.8-28.8,28.8s12.8,28.8,28.8,28.8s28.8-12.8,28.8-28.8C311.2,239.2,298.4,226.4,282.4,226.4z
			 M282.4,272c-8.8,0-16.8-7.2-16.8-16.8s7.2-16.8,16.8-16.8c8.8,0,16.8,7.2,16.8,16.8S292,272,282.4,272z"/>
	</g>
</g>
<g>
	<g>
		<path d="M228.8,249.6h-74.4c-3.2,0-6.4,2.4-6.4,6.4c0,3.2,2.4,6.4,6.4,6.4h74.4c3.2,0,6.4-2.4,6.4-6.4S232.8,249.6,228.8,249.6z"
			/>
	</g>
</g>
<g>
	<g>
		<path d="M376.8,69.6h-31.2v-28C345.6,14.4,268,0,192,0S38.4,14.4,38.4,42.4v28H7.2c-3.2,0-6.4,2.4-6.4,6.4v96.8
			c0,3.2,2.4,6.4,6.4,6.4h31.2v124h-0.8c-7.2,0-13.6,6.4-13.6,14.4v14.4c0,8,6.4,14.4,13.6,14.4h35.2v0.8v24.8
			c0,7.2,6.4,12.8,14.4,12.8h24c8,0,14.4-5.6,14.4-12.8V348v-0.8H260v0.8v24.8c0,7.2,6.4,12.8,14.4,12.8h24c8,0,14.4-5.6,14.4-12.8
			V348v-0.8H348c7.2,0,13.6-6.4,13.6-14.4v-14.4c0-8-6.4-14.4-13.6-14.4h-0.8V178.4h31.2c3.2,0,6.4-2.4,6.4-6.4V76
			C383.2,72.8,380,69.6,376.8,69.6z M50.4,41.6c0-12,55.2-30.4,141.6-30.4s141.6,17.6,141.6,30.4V304H50.4V41.6z M12.8,166.4
			L12.8,166.4V81.6h25.6v84.8H12.8z M112.8,371.2c0,0-0.8,0.8-2.4,0.8h-24c-1.6,0-2.4-0.8-2.4-0.8v-24.8c0,0,0.8-0.8,2.4-0.8h24
			c1.6,0,2.4,0.8,2.4,0.8V371.2z M299.2,371.2c0,0-0.8,0.8-2.4,0.8h-24c-1.6,0-2.4-0.8-2.4-0.8v-24.8c0,0,0.8-0.8,2.4-0.8h24
			c1.6,0,2.4,0.8,2.4,0.8V371.2z M348,318.4v14.4c0,0.8-0.8,2.4-1.6,2.4h-49.6h-24H110.4h-24H36.8c-0.8,0-1.6-0.8-1.6-2.4v-14.4
			c0-0.8,0.8-2.4,1.6-2.4H44h295.2h7.2C347.2,316,348,316.8,348,318.4z M371.2,166.4h-25.6V81.6h25.6V166.4z"/>
	</g>
</g>
<g>
</g>
<g>
</g>
<g>
</g>
<g>
</g>
<g>
</g>
<g>
</g>
<g>
</g>
<g>
</g>
<g>
</g>
<g>
</g>
<g>
</g>
<g>
</g>
<g>
</g>
<g>
</g>
<g>
</g>
</svg>
