<?xml version="1.0" encoding="iso-8859-1"?>
<!-- Generator: Adobe Illustrator 19.0.0, SVG Export Plug-In . SVG Version: 6.00 Build 0)  -->
<svg fill="white" version="1.1" id="Capa_1" xmlns="http://www.w3.org/2000/svg" xmlns:xlink="http://www.w3.org/1999/xlink" x="0px" y="0px"
	 viewBox="0 0 393.6 393.6" style="enable-background:new 0 0 393.6 393.6;" xml:space="preserve">
<g>
	<g>
		<path d="M338,0H55.6C47.6,0,42,6.4,42,13.6v365.6c0,8,6.4,14.4,13.6,14.4H338c8,0,13.6-6.4,13.6-13.6V13.6
			C351.6,5.6,345.2,0,338,0z M54,13.6c0-0.8,0.8-1.6,1.6-1.6H338c0.8,0,1.6,0.8,1.6,1.6v121.6H54V13.6z M190.8,381.6H55.6
			c-0.8,0-1.6-0.8-1.6-1.6V270.4h136.8V381.6z M190.8,259.2H54V148h136.8V259.2z M340.4,380c0,0.8-0.8,1.6-1.6,1.6H203.6V270.4
			h136.8V380z M340.4,258.4H203.6V148h136.8V258.4z"/>
	</g>
</g>
<g>
	<g>
		<path d="M150.8,195.2H126v-24.8c0-3.2-2.4-6.4-6.4-6.4c-3.2,0-6.4,2.4-6.4,6.4v24.8H88.4c-3.2,0-6.4,2.4-6.4,6.4
			c0,3.2,2.4,6.4,6.4,6.4h24.8v24.8c0,3.2,2.4,6.4,6.4,6.4c3.2,0,6.4-2.4,6.4-6.4V208h24.8c3.2,0,6.4-2.4,6.4-6.4
			C156.4,197.6,154,195.2,150.8,195.2z"/>
	</g>
</g>
<g>
	<g>
		<path d="M278,200.8l17.6-17.6c2.4-2.4,2.4-6.4,0-8.8c-2.4-2.4-6.4-2.4-8.8,0L269.2,192l-16-16.8c-2.4-2.4-6.4-2.4-8.8,0
			c-2.4,2.4-2.4,6.4,0,8.8l17.6,17.6l-17.6,17.6c-2.4,1.6-2.4,5.6,0,8c0.8,0.8,2.4,1.6,4,1.6c1.6,0,3.2-0.8,4-1.6l17.6-17.6
			l17.6,17.6c0.8,0.8,2.4,1.6,4,1.6c1.6,0,3.2-0.8,4-1.6c2.4-2.4,2.4-6.4,0-8.8L278,200.8z"/>
	</g>
</g>
<g>
	<g>
		<path d="M150.8,318.4H89.2c-3.2,0-6.4,2.4-6.4,6.4c0,3.2,3.2,6.4,6.4,6.4h61.6c3.2,0,6.4-2.4,6.4-6.4
			C157.2,321.6,154.8,318.4,150.8,318.4z"/>
	</g>
</g>
<g>
	<g>
		<path d="M301.2,318.4h-61.6c-3.2,0-6.4,2.4-6.4,6.4c0.8,3.2,3.2,6.4,6.4,6.4h61.6c3.2,0,6.4-2.4,6.4-6.4
			C307.6,321.6,305.2,318.4,301.2,318.4z"/>
	</g>
</g>
<g>
	<g>
		<circle cx="270.8" cy="299.2" r="12"/>
	</g>
</g>
<g>
	<g>
		<circle cx="270.8" cy="350.4" r="12"/>
	</g>
</g>
<g>
	<g>
		<path d="M308.4,28.8H86c-8,0-15.2,6.4-15.2,13.6v62.4c0,7.2,6.4,13.6,15.2,13.6h221.6c8,0,15.2-6.4,15.2-13.6V42.4
			C322.8,35.2,316.4,28.8,308.4,28.8z M310.8,104.8c0,0.8-0.8,1.6-3.2,1.6H86c-1.6,0-3.2-0.8-3.2-1.6V42.4c0-0.8,0.8-1.6,3.2-1.6
			h221.6c1.6,0,3.2,0.8,3.2,1.6V104.8z"/>
	</g>
</g>
<g>
</g>
<g>
</g>
<g>
</g>
<g>
</g>
<g>
</g>
<g>
</g>
<g>
</g>
<g>
</g>
<g>
</g>
<g>
</g>
<g>
</g>
<g>
</g>
<g>
</g>
<g>
</g>
<g>
</g>
</svg>
