<?xml version="1.0" encoding="iso-8859-1"?>
<!-- Generator: Adobe Illustrator 19.0.0, SVG Export Plug-In . SVG Version: 6.00 Build 0)  -->
<svg fill="white" version="1.1" id="Capa_1" xmlns="http://www.w3.org/2000/svg" xmlns:xlink="http://www.w3.org/1999/xlink" x="0px" y="0px"
	 viewBox="0 0 339.04 339.04" style="enable-background:new 0 0 339.04 339.04;" xml:space="preserve">
<g>
	<g>
		<g>
			<path d="M148.02,203.72c1.243,1.39,3.016,2.189,4.88,2.2c3.84,0,11.293-4.24,22.36-12.72v59.44
				c-0.229,2.774,0.568,5.535,2.24,7.76c1.632,1.796,3.975,2.778,6.4,2.68c5.973,0,8.96-4.387,8.96-13.16v-74.8
				c0.165-2.631-0.569-5.24-2.08-7.4c-1.309-1.742-3.382-2.741-5.56-2.68c-1.437-0.114-2.864,0.314-4,1.2
				c-1.693,2.011-3.281,4.107-4.76,6.28c-5.31,7.526-12.609,13.426-21.08,17.04c-2.577,1.118-5.053,2.456-7.4,4
				c-1.508,1.233-2.29,3.144-2.08,5.08C145.883,200.552,146.649,202.387,148.02,203.72z"/>
			<path d="M275.54,32.96h-1.52v-5.64C273.998,12.241,261.779,0.022,246.7,0c-15.079,0.022-27.298,12.241-27.32,27.32V33h-99.8
				v-5.64c-0.022-15.079-12.241-27.298-27.32-27.32c-7.234,0.001-14.171,2.879-19.28,8c-5.125,5.107-8.004,12.045-8,19.28v5.64
				h-1.52c-25.968,0.088-46.978,21.152-47,47.12v212c0.11,25.936,21.143,46.916,47.08,46.96h212
				c25.952-0.066,46.974-21.088,47.04-47.04V80C322.514,54.048,301.492,33.026,275.54,32.96z M231.54,27.32
				c0.022-8.341,6.779-15.098,15.12-15.12c8.341,0.022,15.098,6.779,15.12,15.12V50.8c-0.022,8.341-6.779,15.098-15.12,15.12
				c-8.341-0.022-15.098-6.779-15.12-15.12V27.32z M77.06,27.32c0.006-4.008,1.603-7.849,4.44-10.68
				c2.842-2.855,6.707-4.45,10.734-4.437c8.316,0.051,15.045,6.794,15.066,15.117v23.64c-0.002,4.009-1.599,7.852-4.44,10.68
				l-0.24,0.28c-2.841,2.618-6.577,4.049-10.44,4c-8.351,0-15.12-6.769-15.12-15.12V27.32z M310.3,292.08
				c-0.066,19.214-15.626,34.774-34.84,34.84h-212c-19.214-0.066-34.774-15.626-34.84-34.84V108.44H310.3V292.08z M310.38,96.24
				H28.66V80c0.066-19.214,15.626-34.774,34.84-34.84h1.52l0.04,5.68c-0.004,7.235,2.875,14.173,8,19.28
				c5.107,5.125,12.045,8.004,19.28,8c7.065-0.006,13.85-2.76,18.92-7.68l0.36-0.36c5.121-5.109,7.999-12.046,8-19.28v-5.64h99.76
				v5.64c0.022,15.079,12.241,27.298,27.32,27.32c15.079-0.022,27.298-12.241,27.32-27.32v-5.64h1.52
				c19.214,0.066,34.774,15.626,34.84,34.84V96.24z"/>
		</g>
	</g>
</g>
<g>
</g>
<g>
</g>
<g>
</g>
<g>
</g>
<g>
</g>
<g>
</g>
<g>
</g>
<g>
</g>
<g>
</g>
<g>
</g>
<g>
</g>
<g>
</g>
<g>
</g>
<g>
</g>
<g>
</g>
</svg>
