<?xml version="1.0" encoding="iso-8859-1"?>
<!-- Generator: Adobe Illustrator 19.0.0, SVG Export Plug-In . SVG Version: 6.00 Build 0)  -->
<svg version="1.1" id="Capa_1" xmlns="http://www.w3.org/2000/svg" xmlns:xlink="http://www.w3.org/1999/xlink" x="0px" y="0px"
	 viewBox="0 0 350.4 350.4" style="enable-background:new 0 0 350.4 350.4;" xml:space="preserve">
<g>
	<g>
		<g>
			<path d="M176.333,69.904c-3.314-0.543-6.44,1.703-6.983,5.017v98.6l-24.72,41.68c-0.122,0.182-0.234,0.371-0.336,0.565
				c-1.556,2.976-0.405,6.649,2.57,8.205c2.976,1.556,6.649,0.405,8.205-2.57l25.24-42.76c0.685-1.016,1.048-2.215,1.04-3.44V74.921
				C180.928,72.345,178.909,70.326,176.333,69.904z"/>
			<path d="M175.43,0.001c-46.501-0.123-91.132,18.305-124,51.2C18.56,84.01,0.061,128.528,0,174.971
				c-0.127,96.76,78.21,175.303,174.97,175.43c96.76,0.127,175.303-78.21,175.43-174.97C350.527,78.67,272.19,0.127,175.43,0.001z
				 M290.707,290.477c-63.645,63.666-166.851,63.682-230.517,0.037C-3.476,226.869-3.492,123.663,60.153,59.997
				S227.004-3.685,290.67,59.961l0.04-0.04c30.614,30.545,47.789,72.034,47.72,115.28
				C338.44,218.435,321.273,259.901,290.707,290.477z"/>
			<path d="M175.43,29.041c-38.776-0.053-75.973,15.35-103.36,42.8C44.659,99.247,29.256,136.42,29.251,175.182
				c-0.01,80.722,65.419,146.168,146.141,146.179c80.722,0.01,146.168-65.419,146.179-146.141S256.152,29.051,175.43,29.041z
				 M270.135,269.985C217.8,322.311,132.956,322.304,80.63,269.97c-52.326-52.335-52.319-137.179,0.015-189.505
				s137.179-52.319,189.505,0.015c25.16,25.096,39.282,59.184,39.24,94.72C309.397,210.752,295.275,244.849,270.135,269.985z"/>
		</g>
	</g>
</g>
<g>
</g>
<g>
</g>
<g>
</g>
<g>
</g>
<g>
</g>
<g>
</g>
<g>
</g>
<g>
</g>
<g>
</g>
<g>
</g>
<g>
</g>
<g>
</g>
<g>
</g>
<g>
</g>
<g>
</g>
</svg>
