<?xml version="1.0" encoding="iso-8859-1"?>
<!-- Generator: Adobe Illustrator 19.0.0, SVG Export Plug-In . SVG Version: 6.00 Build 0)  -->
<svg version="1.1" id="Capa_1" xmlns="http://www.w3.org/2000/svg" xmlns:xlink="http://www.w3.org/1999/xlink" x="0px" y="0px"
	 viewBox="0 0 401.004 401.004" style="enable-background:new 0 0 401.004 401.004;" xml:space="preserve">
<g>
	<g>
		<path d="M173.004,64.268l-80.8-24c-1.6-0.8-3.2,0-4.8,0.8c-1.6,0.8-2.4,2.4-3.2,3.2l-84,284.8c-0.8,3.2,0.8,6.4,4,7.2l80.8,24
			c0.8,0.8,0.8,0.8,1.6,0.8s1.6,0,3.2-0.8c1.6-0.8,2.4-2.4,3.2-3.2l84-285.6C177.804,68.268,176.204,65.068,173.004,64.268z
			 M82.604,347.468l-68.8-20.8l80.8-273.6l68.8,20L82.604,347.468z"/>
	</g>
</g>
<g>
	<g>
		<path d="M277.804,45.068h-84c-3.2,0-6.4,2.4-6.4,6.4v297.6c0,3.2,2.4,6.4,6.4,6.4h84v-0.8c3.2,0,6.4-2.4,6.4-6.4v-296.8
			C284.204,48.268,281.804,45.068,277.804,45.068z M272.204,343.468h-72v-285.6h72V343.468z"/>
	</g>
</g>
<g>
	<g>
		<path d="M394.604,45.868h-84c-3.2,0-6.4,2.4-6.4,6.4v297.6c0,3.2,2.4,6.4,6.4,6.4h84c3.2,0,6.4-2.4,6.4-6.4v-298.4
			C400.204,48.268,397.804,45.868,394.604,45.868z M388.204,342.668h-72v-284.8h72V342.668z"/>
	</g>
</g>
<g>
	<g>
		<path d="M125.804,74.668c-12.8-4-26.4,4-29.6,16c-1.6,6.4-0.8,12.8,1.6,18.4c3.2,5.6,8,9.6,14.4,11.2c2.4,0.8,4.8,0.8,7.2,0.8
			c10.4,0,20-7.2,23.2-17.6C145.804,91.468,138.604,78.668,125.804,74.668z M130.604,101.068c-1.6,6.4-8.8,10.4-15.2,8
			c-3.2-0.8-5.6-3.2-7.2-5.6c-1.6-3.2-1.6-6.4-0.8-9.6c1.6-4.8,6.4-8.8,12-8.8c0.8,0,2.4,0,3.2,0.8
			C128.204,88.268,132.204,94.668,130.604,101.068z"/>
	</g>
</g>
<g>
	<g>
		<path d="M236.204,69.068c-13.6,0-24,11.2-24,24c0,13.6,11.2,24,24,24c13.6,0,24-11.2,24-24S249.004,69.068,236.204,69.068z
			 M236.204,105.068c-6.4,0-12-5.6-12-12c0-6.4,5.6-12,12-12c6.4,0,12,5.6,12,12C248.204,100.268,242.604,105.068,236.204,105.068z"
			/>
	</g>
</g>
<g>
	<g>
		<path d="M352.204,69.068c-13.6,0-24,11.2-24,24c0,13.6,11.2,24,24,24c13.6,0,24-11.2,24-24
			C376.204,79.468,365.004,69.068,352.204,69.068z M352.204,105.068c-6.4,0-12-5.6-12-12s5.6-12,12-12c6.4,0,12,5.6,12,12
			C364.204,99.468,358.604,105.068,352.204,105.068z"/>
	</g>
</g>
<g>
	<g>
		<path d="M94.604,241.068l-33.6-10.4c-3.2-0.8-6.4,0.8-7.2,4c-0.8,3.2,0.8,6.4,4,7.2l33.6,10.4c0.8,0,0.8,0,1.6,0
			c2.4,0,4.8-1.6,5.6-4C100.204,245.868,97.804,241.868,94.604,241.068z"/>
	</g>
</g>
<g>
	<g>
		<path d="M81.804,284.268l-33.6-9.6c-3.2-0.8-6.4,0.8-7.2,4s0.8,6.4,4,7.2l33.6,10.4c0.8,0,0.8,0,1.6,0c2.4,0,4.8-1.6,5.6-4
			C87.404,289.068,85.004,285.068,81.804,284.268z"/>
	</g>
</g>
<g>
	<g>
		<path d="M253.804,237.868h-35.2c-3.2,0-6.4,2.4-6.4,6.4c0,3.2,2.4,6.4,6.4,6.4h35.2c3.2,0,6.4-2.4,6.4-6.4
			C259.404,240.268,257.004,237.868,253.804,237.868z"/>
	</g>
</g>
<g>
	<g>
		<path d="M253.804,282.668h-35.2c-3.2,0-6.4,2.4-6.4,6.4c0,3.2,2.4,6.4,6.4,6.4h35.2c3.2,0,6.4-2.4,6.4-6.4
			C259.404,285.868,257.004,282.668,253.804,282.668z"/>
	</g>
</g>
<g>
	<g>
		<path d="M369.804,237.868h-35.2c-3.2,0-6.4,2.4-6.4,6.4c0,3.2,2.4,6.4,6.4,6.4h35.2c3.2,0,6.4-2.4,6.4-6.4
			S373.004,237.868,369.804,237.868z"/>
	</g>
</g>
<g>
	<g>
		<path d="M369.804,282.668h-35.2c-3.2,0-6.4,2.4-6.4,6.4c0,3.2,2.4,6.4,6.4,6.4h35.2c3.2,0,6.4-2.4,6.4-6.4
			C376.204,285.868,373.004,282.668,369.804,282.668z"/>
	</g>
</g>
<g>
</g>
<g>
</g>
<g>
</g>
<g>
</g>
<g>
</g>
<g>
</g>
<g>
</g>
<g>
</g>
<g>
</g>
<g>
</g>
<g>
</g>
<g>
</g>
<g>
</g>
<g>
</g>
<g>
</g>
</svg>
