<?xml version="1.0" encoding="iso-8859-1"?>
<!-- Generator: Adobe Illustrator 19.0.0, SVG Export Plug-In . SVG Version: 6.00 Build 0)  -->
<svg fill="white" version="1.1" id="Capa_1" xmlns="http://www.w3.org/2000/svg" xmlns:xlink="http://www.w3.org/1999/xlink" x="0px" y="0px"
	 viewBox="0 0 375.75 375.75" style="enable-background:new 0 0 375.75 375.75;" xml:space="preserve">
<g>
	<g>
		<path d="M295.932,60.95c-23.6-32.8-58-54.4-98-60.8c-1.6-0.4-3.2,0-4.8,1.2c-1.2,0.8-2.4,2.4-2.4,4l-3.6,22
			c-3.2-0.4-6-0.8-9.2-0.8c-62.8-2.4-115.2,42.4-124.8,102.8c0,0,0,0,0,0.4c-0.8,4.8-1.2,9.6-1.6,14.4c-1.2,30.4,9.2,58.4,26.8,80.4
			l0.4,0.4c17.2,21.6,41.2,36.8,69.2,42.8l-3.6,22c-0.4,3.6,1.6,6.8,5.2,7.2c6,0.8,12,1.6,18,1.6v24.4h-66
			c-14.4,0-26.4,12-26.4,26.4c0,14.4,12,26.4,26.4,26.4h144.8c14.4,0,26.4-12,26.4-26.4c0-14.4-12-26.4-26.4-26.4h-66.4v-24.4
			c29.2-1.2,57.2-10.8,81.6-28c32.8-23.6,54.4-58.4,60.8-98C328.732,133.35,319.532,93.75,295.932,60.95z M191.932,43.75
			c11.6,18,19.6,34.8,24.8,50.8c-27.6,3.2-49.6-2-66-10C161.132,70.15,174.732,56.55,191.932,43.75z M223.132,161.35
			c-2.8,17.6-8.4,32.8-15.6,46c-26-10.4-52.4-10.8-74-8c-5.6-15.2-8.8-33.2-7.2-52.4L223.132,161.35z M128.332,134.95
			c2.8-13.6,8-27.2,16-40c14.8,7.2,33.6,13.2,56.8,13.2c6,0,12.4-0.4,19.2-1.2c3.6,15.2,4.8,29.2,4.4,42.4L128.332,134.95z
			 M212.332,223.35c8,4,16,9.2,23.6,15.6c-15.2,10.4-32.8,17.2-52,18.8C191.532,250.55,202.332,238.95,212.332,223.35z
			 M218.732,212.15c7.6-14,13.6-30.4,16.8-49.2l46,6.8c-5.2,24.8-18,46-35.6,61.2C237.132,222.95,227.932,216.95,218.732,212.15z
			 M236.732,150.95c0.8-14.4,0-29.6-4-46c11.2-2.4,22.8-6,35.6-11.2c10,17.2,15.6,37.6,15.2,59.2c-0.4,1.2-0.8,3.2-0.8,4.8
			L236.732,150.95z M229.132,92.55c-4.8-15.2-11.6-31.2-22-48c21.6,7.2,40.4,20.4,53.6,38.4
			C249.932,87.35,239.132,90.55,229.132,92.55z M173.532,39.35c1.2,0,2.4,0,3.6,0c-15.2,12.4-27.6,25.2-37.6,39.2
			c-12.4-8-20.4-16.8-24.8-22C131.532,45.75,151.932,39.35,173.532,39.35z M104.732,63.35c4.8,6,14.4,16,28.4,24.8
			c-8.4,14-14.4,28.8-17.2,44.4l-48.8-7.2C72.332,100.55,85.932,78.95,104.732,63.35z M84.732,212.55
			c-13.6-19.2-21.6-42.4-20.8-67.6c0.4-2.4,0.8-4.8,0.8-7.2l49.2,7.2c-2,20.8,1.2,40,6.8,56.8
			C104.332,204.95,91.532,209.75,84.732,212.55z M93.132,222.95c6.8-2.8,18-6.4,32-9.2c7.6,18,16.8,32.8,23.6,41.6
			C127.132,250.15,107.932,238.55,93.132,222.95z M138.332,211.75c18.8-2.4,40.8-1.6,62.8,6.8c-15.2,22.8-32.4,36-35.2,38
			C162.332,252.55,148.732,235.75,138.332,211.75z M246.332,336.15c7.6,0,14,6,14,13.6c0,7.6-6,13.6-13.6,13.6h-145.2
			c-7.6,0-13.6-6-13.6-13.6c0-7.6,6-13.6,13.6-13.6H246.332z M309.932,170.95c-6,36.4-26,68.4-55.6,89.6
			c-28.4,20.4-62.4,29.2-96.4,24.8l2.4-15.6c3.2,0.4,6,0.8,9.2,0.8c1.6,0,2.8,0,4.4,0c61.6,0,112.4-45.2,120.8-104.8
			c0.4-4.4,0.8-8.4,1.2-12.8c2-60-39.6-111.2-96-123.6l2.4-15.6c33.6,7.2,63.2,26.4,83.2,54.4
			C307.132,98.15,315.932,134.55,309.932,170.95z"/>
	</g>
</g>
<g>
</g>
<g>
</g>
<g>
</g>
<g>
</g>
<g>
</g>
<g>
</g>
<g>
</g>
<g>
</g>
<g>
</g>
<g>
</g>
<g>
</g>
<g>
</g>
<g>
</g>
<g>
</g>
<g>
</g>
</svg>
