<?xml version="1.0" encoding="iso-8859-1"?>
<!-- Generator: Adobe Illustrator 19.0.0, SVG Export Plug-In . SVG Version: 6.00 Build 0)  -->
<svg fill="white" version="1.1" id="Capa_1" xmlns="http://www.w3.org/2000/svg" xmlns:xlink="http://www.w3.org/1999/xlink" x="0px" y="0px"
	 viewBox="0 0 390.498 390.498" style="enable-background:new 0 0 390.498 390.498;" xml:space="preserve">
<g>
	<g>
		<g>
			<path d="M196.152,44.081c3.314-0.543,5.56-3.669,5.017-6.983v-32c-0.422-2.576-2.441-4.595-5.017-5.017
				c-3.314-0.543-6.44,1.703-6.983,5.017v32c-0.107,0.651-0.107,1.315,0,1.966C189.712,42.378,192.838,44.624,196.152,44.081z"/>
			<path d="M123.249,56.298c1.657,2.96,5.4,4.017,8.36,2.36c2.96-1.657,4.017-5.4,2.36-8.36l-16-27.56
				c-1.679-2.411-4.842-3.276-7.514-2.056c-3.055,1.395-4.4,5.001-3.006,8.056L123.249,56.298z"/>
			<path d="M314.409,106.138l27.56-16c0.254-0.123,0.498-0.264,0.732-0.421c2.789-1.87,3.534-5.647,1.663-8.436
				s-5.647-3.534-8.436-1.663l-27.56,16c-2.518,1.689-3.408,4.975-2.084,7.703C307.751,106.342,311.388,107.603,314.409,106.138z"/>
			<path d="M48.529,90.138l27.56,16c0.234,0.157,0.479,0.298,0.733,0.421c3.021,1.466,6.658,0.205,8.124-2.817
				c1.466-3.021,0.205-6.658-2.817-8.124l-27.56-16c-0.234-0.157-0.479-0.298-0.733-0.421c-3.021-1.466-6.658-0.205-8.124,2.817
				C44.247,85.035,45.508,88.672,48.529,90.138z"/>
			<path d="M258.925,59.155c3.021,1.466,6.658,0.204,8.124-2.817l16-27.56c1.323-2.728,0.434-6.014-2.084-7.703
				c-2.789-1.87-6.566-1.126-8.436,1.663l-16,27.56c-0.157,0.234-0.298,0.479-0.421,0.733
				C254.643,54.052,255.904,57.689,258.925,59.155z"/>
			<path d="M362.329,160.578h-32c-2.576,0.422-4.595,2.441-5.017,5.017c-0.543,3.314,1.703,6.44,5.017,6.983h32
				c2.576-0.422,4.595-2.441,5.017-5.017C367.889,164.247,365.643,161.121,362.329,160.578z"/>
			<path d="M313.977,170.809c-0.049-65.523-53.205-118.6-118.729-118.551c-39.156,0.009-75.786,19.336-97.894,51.654
				c-36.995,54.08-23.146,127.911,30.934,164.906c-0.04,0.639-0.04,1.281,0,1.92v82.6c0.022,8.518,6.922,15.418,15.44,15.44h10.44
				c2.834,5.824,7.084,10.844,12.36,14.6c6.464,4.626,14.212,7.115,22.16,7.12h13.12c7.948-0.005,15.696-2.494,22.16-7.12
				c5.276-3.756,9.526-8.776,12.36-14.6h10.32c8.518-0.022,15.418-6.922,15.44-15.44v-82.44c0.039-0.639,0.039-1.281,0-1.92
				C294.576,246.868,314.007,210.106,313.977,170.809z M247.089,267.498c1.654,0.183,2.91,1.576,2.92,3.24v16.52h-109.52
				l-0.16-16.52c0.01-1.664,1.266-3.057,2.92-3.24H247.089z M179.729,255.298l-13.28-46.68l10.28,8
				c0.451,0.346,0.948,0.627,1.478,0.835c3.125,1.228,6.654-0.31,7.882-3.435l9.16-19.6l9.16,19.76
				c0.208,0.529,0.489,1.026,0.835,1.478c2.044,2.664,5.861,3.167,8.525,1.122l10.28-8l-13.24,46.68L179.729,255.298z
				 M250.009,299.458v25.36h-109.52v-25.36H250.009z M216.929,373.458c-4.417,3.136-9.703,4.814-15.12,4.8h-13.12
				c-5.417,0.014-10.703-1.664-15.12-4.8c-1.875-1.336-3.569-2.909-5.04-4.68h53.44
				C220.498,370.549,218.804,372.122,216.929,373.458z M246.769,356.618h-103c-1.812,0-3.28-1.469-3.28-3.28v-16.36h109.52
				l0.04,16.36C250.049,355.149,248.58,356.618,246.769,356.618z M255.769,258.378c-2.145-1.593-4.668-2.6-7.32-2.92h-25.2
				l17.6-61.04c0.555-1.957,0.094-4.062-1.228-5.609c-2.182-2.552-6.02-2.853-8.572-0.671l-18.6,14.24l-11.64-24.92
				c-1.109-2.054-3.227-3.364-5.56-3.44c-2.328,0.062-4.434,1.399-5.48,3.48l-11.64,24.92l-18.6-14.24
				c-1.547-1.322-3.652-1.783-5.609-1.228c-3.231,0.916-5.107,4.277-4.191,7.508l17.52,61h-25.52
				c-2.652,0.322-5.175,1.328-7.32,2.92c-13.465-9.351-24.604-21.667-32.56-36c-17.653-32.009-17.653-70.836,0-102.845
				c28.4-51.495,93.168-70.217,144.663-41.817s70.217,93.168,41.817,144.663C280.373,236.711,269.234,249.027,255.769,258.378z"/>
			<path d="M344.729,243.938l-27.4-15.72c-0.135-0.085-0.273-0.165-0.414-0.24c-2.971-1.564-6.648-0.424-8.213,2.547
				c-1.565,2.971-0.424,6.648,2.547,8.213l27.4,15.72c0.135,0.085,0.273,0.165,0.414,0.24c2.971,1.565,6.648,0.424,8.213-2.547
				C348.84,249.179,347.7,245.502,344.729,243.938z"/>
			<path d="M73.329,227.978l-27.56,16c-0.141,0.074-0.279,0.154-0.414,0.24c-2.839,1.793-3.686,5.549-1.893,8.387
				c1.793,2.839,5.549,3.686,8.387,1.893l27.4-15.76c2.971-1.635,4.055-5.369,2.42-8.34C80.034,227.427,76.3,226.343,73.329,227.978
				z"/>
			<path d="M65.186,167.761c0.543-3.314-1.703-6.44-5.017-6.983h-32c-2.576,0.422-4.595,2.441-5.017,5.017
				c-0.543,3.314,1.703,6.44,5.017,6.983h32C62.745,172.356,64.764,170.337,65.186,167.761z"/>
		</g>
	</g>
</g>
<g>
</g>
<g>
</g>
<g>
</g>
<g>
</g>
<g>
</g>
<g>
</g>
<g>
</g>
<g>
</g>
<g>
</g>
<g>
</g>
<g>
</g>
<g>
</g>
<g>
</g>
<g>
</g>
<g>
</g>
</svg>
