<?xml version="1.0" encoding="iso-8859-1"?>
<!-- Generator: Adobe Illustrator 19.0.0, SVG Export Plug-In . SVG Version: 6.00 Build 0)  -->
<svg version="1.1" id="Capa_1" xmlns="http://www.w3.org/2000/svg" xmlns:xlink="http://www.w3.org/1999/xlink" x="0px" y="0px"
	 viewBox="0 0 431.56 431.56" style="enable-background:new 0 0 431.56 431.56;" xml:space="preserve">
<g>
	<g>
		<g>
			<path d="M424.76,303.48h-16.24v-202.44c-0.002-4.804-1.917-9.41-5.32-12.8c-3.39-3.403-7.996-5.318-12.8-5.32H41.24l-0.04-0.28
				c-4.588-0.048-9.022,1.654-12.4,4.76l-0.4,0.36c-3.458,3.423-5.39,8.095-5.36,12.96v202.76H6.8c-3.746,0.022-6.778,3.054-6.8,6.8
				c0.044,21.322,17.318,38.596,38.64,38.64h354.28c21.322-0.044,38.596-17.318,38.64-38.64
				C431.538,306.534,428.506,303.502,424.76,303.48z M35.2,100.761c0.055-1.509,0.685-2.94,1.76-4l0.24-0.24
				c1.095-0.991,2.523-1.534,4-1.52h349.36c1.504,0.04,2.936,0.656,4,1.72c1.075,1.06,1.705,2.491,1.76,4v202.76H382.2v-176.12
				c-0.002-4.804-1.917-9.41-5.32-12.8c-3.39-3.403-7.996-5.318-12.8-5.32H67.56l-0.08-0.32c-4.63-0.004-9.083,1.772-12.44,4.96
				l-0.4,0.36c-3.403,3.39-5.318,7.996-5.32,12.8v176.44H35.2V100.761z M364.04,121.12c1.561,0.072,3.029,0.763,4.08,1.92
				c1.075,1.06,1.705,2.491,1.76,4v176.44H61.48v-176.48c0.055-1.509,0.685-2.94,1.76-4l0.24-0.24c1.095-0.991,2.523-1.534,4-1.52
				h296.6L364.04,121.12z M392.88,336.84H38.64c-12.516-0.051-23.298-8.833-25.88-21.08h389.6h16.4
				C416.178,328.007,405.396,336.789,392.88,336.84z"/>
			<path d="M229.24,320.401h-26.88c-0.651-0.107-1.315-0.107-1.966,0c-3.314,0.543-5.56,3.669-5.017,6.983
				c0.543,3.314,3.669,5.56,6.983,5.017h26.88c2.576-0.422,4.595-2.441,5.017-5.017C234.8,324.07,232.554,320.943,229.24,320.401z"
				/>
		</g>
	</g>
</g>
<g>
</g>
<g>
</g>
<g>
</g>
<g>
</g>
<g>
</g>
<g>
</g>
<g>
</g>
<g>
</g>
<g>
</g>
<g>
</g>
<g>
</g>
<g>
</g>
<g>
</g>
<g>
</g>
<g>
</g>
</svg>
