<?xml version="1.0" encoding="iso-8859-1"?>
<!-- Generator: Adobe Illustrator 19.0.0, SVG Export Plug-In . SVG Version: 6.00 Build 0)  -->
<svg fill="white" version="1.1" id="Capa_1" xmlns="http://www.w3.org/2000/svg" xmlns:xlink="http://www.w3.org/1999/xlink" x="0px" y="0px"
	 viewBox="0 0 474.196 474.196" style="enable-background:new 0 0 474.196 474.196;" xml:space="preserve">
<g>
	<g>
		<path d="M469.098,169.055l-115.24-28l-115.28-27.56c-0.943-0.245-1.931-0.259-2.88-0.04l-115.36,27.6l-115.24,27.68
			c-2.576,0.422-4.595,2.441-5.017,5.017c-0.543,3.314,1.703,6.44,5.017,6.983l64,15.36v84.96c-0.143,5.412,1.888,10.656,5.64,14.56
			c3.993,3.877,9.182,6.288,14.72,6.84c48.962,5.38,98.184,8.05,147.44,8c49.256,0.038,98.477-2.633,147.44-8
			c5.538-0.552,10.727-2.963,14.72-6.84c3.898-3.838,6.077-9.09,6.04-14.56v-84.96l29.52-7.04v93.52
			c-3.084,0.953-5.905,2.61-8.24,4.84l-0.36,0.36c-3.908,3.887-6.11,9.168-6.12,14.68v37.64c0.006,5.513,2.208,10.796,6.12,14.68
			c3.884,3.912,9.167,6.114,14.68,6.12c5.513-0.006,10.796-2.208,14.68-6.12c3.912-3.884,6.114-9.167,6.12-14.68v-37.52
			c0.022-9.177-5.951-17.293-14.72-20v-96.16l22.32-5.36c2.576-0.422,4.595-2.441,5.017-5.017
			C474.658,172.725,472.412,169.598,469.098,169.055z M393.098,281.055c0.003,2.227-0.891,4.36-2.48,5.92
			c-2.03,1.928-4.652,3.112-7.44,3.36c-48.51,5.343-97.277,8.014-146.08,8c-48.803,0.024-97.571-2.646-146.08-8
			c-2.788-0.248-5.41-1.432-7.44-3.36c-1.589-1.56-2.483-3.693-2.48-5.92v-82.04l39.24,9.44l115.32,27.72h2.92l115.28-27.72
			l39.24-9.44V281.055z M397.778,185.415l-46.76,11.24l-113.92,27.4l-113.92-27.4l-46.16-11.04l-1.12-0.28l-43.52-10.44l90.8-21.84
			l113.92-27.44l113.92,27.44l90.8,21.76l-1.96,0.48l-1.12,0.28L397.778,185.415z M449.338,302.455v37.52
			c-0.005,2.28-0.911,4.465-2.52,6.08c-1.612,1.613-3.799,2.519-6.08,2.52c-4.75,0-8.6-3.85-8.6-8.6v-37.52
			c0.001-2.281,0.907-4.468,2.52-6.08l0.24-0.24c1.59-1.468,3.676-2.282,5.84-2.28C445.478,293.877,449.316,297.715,449.338,302.455
			z"/>
	</g>
</g>
<g>
</g>
<g>
</g>
<g>
</g>
<g>
</g>
<g>
</g>
<g>
</g>
<g>
</g>
<g>
</g>
<g>
</g>
<g>
</g>
<g>
</g>
<g>
</g>
<g>
</g>
<g>
</g>
<g>
</g>
</svg>
