<?xml version="1.0" encoding="iso-8859-1"?>
<!-- Generator: Adobe Illustrator 19.0.0, SVG Export Plug-In . SVG Version: 6.00 Build 0)  -->
<svg version="1.1" id="Capa_1" xmlns="http://www.w3.org/2000/svg" xmlns:xlink="http://www.w3.org/1999/xlink" x="0px" y="0px"
	 viewBox="0 0 420.8 420.8" style="enable-background:new 0 0 420.8 420.8;" xml:space="preserve">
<g>
	<g>
		<path d="M116.8,154.1c-6.4-4.8-14.4-8.8-23.2-8.8s-16.8,3.2-23.2,9.6c-12.8,12.8-12.8,33.6,0,45.6c6.4,6.4,14.4,9.6,23.2,9.6
			s16.8-3.2,23.2-9.6c6.4-6.4,9.6-14.4,9.6-23.2C126.4,168.5,123.2,160.5,116.8,154.1z M108,192.5c-8,8-21.6,8-28.8,0
			c-8-8-8-20.8,0-28.8c4-4,8.8-6.4,14.4-6.4s10.4,2.4,14.4,6.4s6.4,8.8,6.4,14.4C114.4,183.7,112,188.5,108,192.5z"/>
	</g>
</g>
<g>
	<g>
		<path d="M188,121.3c-6.4-6.4-14.4-9.6-23.2-9.6s-16.8,3.2-23.2,9.6c-6.4,6.4-9.6,14.4-9.6,23.2s3.2,16.8,9.6,23.2
			c6.4,5.6,14.4,9.6,23.2,9.6s16.8-3.2,23.2-9.6c6.4-6.4,9.6-14.4,9.6-23.2S194.4,127.7,188,121.3z M179.2,158.9c-8,8-21.6,8-28.8,0
			c-4-4-6.4-8.8-6.4-14.4s2.4-10.4,6.4-14.4s8.8-6.4,14.4-6.4s10.4,2.4,14.4,6.4s6.4,8.8,6.4,14.4
			C185.6,150.1,183.2,154.9,179.2,158.9z"/>
	</g>
</g>
<g>
	<g>
		<path d="M81.6,226.9c-6.4-5.6-14.4-8.8-23.2-8.8s-16.8,3.2-23.2,9.6c-6.4,6.4-9.6,14.4-9.6,23.2c0,8.8,3.2,16.8,9.6,23.2
			c6.4,5.6,14.4,8.8,23.2,8.8c8.8,0,16.8-3.2,23.2-9.6c6.4-6.4,9.6-14.4,9.6-23.2C91.2,241.3,88,233.3,81.6,226.9z M72.8,265.3
			c-8,8-21.6,8-28.8,0c-4-4-6.4-8.8-6.4-14.4c0-5.6,2.4-10.4,6.4-14.4s8.8-6.4,14.4-6.4c5.6,0,10.4,2.4,14.4,6.4s6.4,8.8,6.4,14.4
			C79.2,255.7,76.8,261.3,72.8,265.3z"/>
	</g>
</g>
<g>
	<g>
		<path d="M420.8,59.7c0-4-1.6-8-4.8-10.4l-12.8-13.6c-5.6-5.6-16-5.6-21.6,0L274.4,142.9c-4-4.8-8-9.6-12-14.4
			c-28.8-28.8-68-44.8-108.8-44.8s-80,16-108.8,44.8C16,157.3,0,196.5,0,237.3c0,40.8,16,80,44.8,108.8c24,24,53.6,38.4,87.2,43.2
			h0.8c2.4,0,4.8-1.6,5.6-3.2c2.4-4,4.8-8,8-11.2c8-8,17.6-12,28.8-12c11.2,0,20.8,4,28.8,12c0.8,0.8,1.6,1.6,2.4,3.2
			c1.6,2.4,4.8,2.4,7.2,1.6c18.4-8,35.2-19.2,49.6-32.8c41.6-41.6,56-104,36-160L416,70.1C419.2,66.9,420.8,63.7,420.8,59.7z
			 M253.6,338.1c-12,12-26.4,21.6-41.6,28.8c-9.6-9.6-23.2-15.2-37.6-15.2s-27.2,5.6-37.6,15.2c-3.2,3.2-5.6,7.2-8,10.4
			c-28.8-4.8-55.2-18.4-76-39.2c-27.2-27.2-41.6-62.4-41.6-100.8c0-37.6,14.4-73.6,41.6-100.8c27.2-27.2,62.4-41.6,100.8-41.6
			c37.6,0,73.6,14.4,100.8,41.6c4.8,4.8,8.8,9.6,12,14.4l-41.6,41.6c-7.2-5.6-13.6-8-20-8c-20.8,0-30.4,28-30.4,29.6
			c-10.4,46.4-31.2,56.8-31.2,56.8c-2.4,0.8-4,4-3.2,6.4c0.8,2.4,3.2,4.8,5.6,4.8c8,0,16,0.8,22.4,0.8c52,0,80.8-9.6,88-28
			c3.2-8,1.6-16.8-1.6-24l34.4-34.4C304,246.1,291.2,301.3,253.6,338.1z M196.8,248.5c0.8,0.8,2.4,1.6,4,1.6c1.6,0,3.2-0.8,4-1.6
			l28.8-28c6.4,8,14.4,20,10.4,29.6c-3.2,8-16.8,20.8-76.8,20.8c-2.4,0-4,0-6.4,0c8-9.6,18.4-25.6,24-53.6c0,0,7.2-20.8,19.2-20.8
			c6.4,0,13.6,5.6,21.6,15.2l-28.8,28.8C195.2,242.9,195.2,246.9,196.8,248.5z M248.8,219.7c-4.8-7.2-9.6-12-11.2-13.6
			c-1.6-1.6-2.4-3.2-4-4.8L344.8,90.1l16.8,16.8L248.8,219.7z M407.2,61.3l-37.6,37.6l-16.8-16.8l37.6-37.6c1.6-1.6,3.2-1.6,4.8,0
			l12,12c0.8,0.8,0.8,1.6,0.8,2.4S407.2,60.5,407.2,61.3z"/>
	</g>
</g>
<g>
</g>
<g>
</g>
<g>
</g>
<g>
</g>
<g>
</g>
<g>
</g>
<g>
</g>
<g>
</g>
<g>
</g>
<g>
</g>
<g>
</g>
<g>
</g>
<g>
</g>
<g>
</g>
<g>
</g>
</svg>
