<?xml version="1.0" encoding="iso-8859-1"?>
<!-- Generator: Adobe Illustrator 19.0.0, SVG Export Plug-In . SVG Version: 6.00 Build 0)  -->
<svg version="1.1" id="Capa_1" xmlns="http://www.w3.org/2000/svg" xmlns:xlink="http://www.w3.org/1999/xlink" x="0px" y="0px"
	 viewBox="0 0 371.404 371.404" style="enable-background:new 0 0 371.404 371.404;" xml:space="preserve">
<g>
	<g>
		<path d="M292.102,325.004h-17.6l24-206.4c0-1.6,0-3.2-1.6-4.8c-0.8-1.6-2.4-2.4-4.8-2.4h-21.6l27.2-86.4c0.8-1.6,0.8-3.2,0-4.8
			c-0.8-1.6-2.4-2.4-3.2-3.2l-55.2-16.8c-3.2-0.8-6.4,0.8-7.2,4l-10.4,33.6l-24-7.2c-1.6-0.8-3.2,0-4.8,0.8
			c-1.6,0.8-2.4,2.4-3.2,3.2l-16.8,54.4c-0.8,3.2,0.8,6.4,4,7.2c0.8,0,0.8,0,1.6,0c2.4,0,4.8-1.6,5.6-4l15.2-48.8l18.4,5.6l-19.2,64
			h-30.4l-27.2-59.2l-0.8-0.8l-0.8-0.8l-42.4-30.4c-1.6-1.6-4-1.6-5.6-0.8c-1.6,0.8-3.2,2.4-3.2,4.8l-4.8,51.2v0.8
			c0,0.8,0,0.8,0,0.8l15.2,32.8h-19.2c-1.6,0-3.2,0.8-4.8,2.4c-0.8,1.6-1.6,3.2-1.6,4.8l24,206.4h-17.6c-3.2,0-6.4,2.4-6.4,6.4v33.6
			c0,3.2,2.4,6.4,6.4,6.4h212.8c3.2,0,6.4-2.4,6.4-6.4v-33.6C298.502,328.204,296.102,325.004,292.102,325.004z M241.702,13.804
			l43.2,13.6l-8.8,28l-43.2-13.6L241.702,13.804z M229.702,53.804l43.2,13.6l-14.4,46.4h-47.2L229.702,53.804z M155.302,113.804
			h-15.2l-19.2-43.2l12.8-5.6L155.302,113.804z M98.502,37.804l24.8,18.4l-28,12.8L98.502,37.804z M96.902,81.804l12.8-5.6
			l17.6,38.4h-15.2L96.902,81.804z M85.702,125.804h21.6h95.2h83.2l-23.2,200.8h-153.6L85.702,125.804z M285.702,360.204h-200.8
			v-21.6h18.4h164h18.4V360.204z"/>
	</g>
</g>
<g>
	<g>
		<path d="M199.302,171.404c-0.8-1.6-2.4-3.2-4.8-4l-27.2-4l-12-24.8c-2.4-4-8.8-4-10.4,0l-12,24.8l-27.2,4c-2.4,0-4,1.6-4.8,4
			c-0.8,2.4,0,4.8,1.6,6.4l20,19.2l-4.8,27.2c0,2.4,0.8,4.8,2.4,5.6c1.6,1.6,4,1.6,6.4,0.8l24-12.8l24,12.8c0.8,0.8,1.6,0.8,2.4,0.8
			c1.6,0,2.4,0,3.2-0.8c1.6-1.6,2.4-4,2.4-5.6l-4.8-28l20-19.2C199.302,176.204,200.102,173.804,199.302,171.404z M167.302,190.604
			c-1.6,1.6-2.4,3.2-1.6,5.6l3.2,18.4l-16.8-8.8c-0.8-0.8-1.6-0.8-2.4-0.8s-1.6,0-2.4,0.8l-16.8,8.8l3.2-18.4c0-1.6,0-4-1.6-5.6
			l-13.6-12.8l18.4-2.4c1.6,0,4-1.6,4.8-3.2l8-16.8l8,16.8c0.8,1.6,2.4,3.2,4.8,3.2l18.4,2.4L167.302,190.604z"/>
	</g>
</g>
<g>
</g>
<g>
</g>
<g>
</g>
<g>
</g>
<g>
</g>
<g>
</g>
<g>
</g>
<g>
</g>
<g>
</g>
<g>
</g>
<g>
</g>
<g>
</g>
<g>
</g>
<g>
</g>
<g>
</g>
</svg>
