<?xml version="1.0" encoding="iso-8859-1"?>
<!-- Generator: Adobe Illustrator 19.0.0, SVG Export Plug-In . SVG Version: 6.00 Build 0)  -->
<svg version="1.1" id="Capa_1" xmlns="http://www.w3.org/2000/svg" xmlns:xlink="http://www.w3.org/1999/xlink" x="0px" y="0px"
	 viewBox="0 0 302.8 302.8" style="enable-background:new 0 0 302.8 302.8;" xml:space="preserve">
<g>
	<g>
		<path d="M277.486,82l14.4-14.4c7.2-7.2,11.2-17.2,10.8-27.6c-0.4-10.4-4.4-20.4-12-28c-8-8-18-12-28.8-12
			c-10.4,0-19.6,4-26.8,10.8l-15.2,15.2c-2-0.8-4.8-0.4-6.4,1.6c-1.6,1.6-2,4.4-1.6,6.4l-189.2,189.2c-13.6,13.6-14.4,35.2-2.8,50.8
			l-18,18c-2.4,2.4-2.4,6.4,0,8.8c1.2,1.2,2.8,2,4.4,2c1.6,0,3.2-0.8,4.4-2l18-18c7.2,5.2,15.2,8,24,8c10.4,0,19.6-4,26.8-10.8
			l189.2-189.2l14.4,14.4l-88,88c-2.4,2.4-2.4,6.4,0,8.8c1.2,1.2,2.8,2,4.4,2c1.6,0,3.2-0.8,4.4-2l92.4-92.4c2.4-2.4,2.4-6.4,0-8.8
			L277.486,82z M52.686,278.4c-7.6,0-14.4-2.8-20-8.4c-9.2-9.2-10.8-22.8-4.8-32.8l37.6,37.6
			C61.886,277.2,57.486,278.4,52.686,278.4z M75.086,266.8l-39.2-39.2l184.8-184.8l39.2,39.2L75.086,266.8z M229.886,33.6l14.4-14
			c4.8-4.8,11.2-7.2,18-7.2c7.6,0,14.4,2.8,20,8.4c5.2,5.2,8.4,12,8.4,19.2s-2.4,13.6-7.2,18.4l-14.4,14.4L229.886,33.6z"/>
	</g>
</g>
<g>
</g>
<g>
</g>
<g>
</g>
<g>
</g>
<g>
</g>
<g>
</g>
<g>
</g>
<g>
</g>
<g>
</g>
<g>
</g>
<g>
</g>
<g>
</g>
<g>
</g>
<g>
</g>
<g>
</g>
</svg>
