<?xml version="1.0" encoding="iso-8859-1"?>
<!-- Generator: Adobe Illustrator 19.0.0, SVG Export Plug-In . SVG Version: 6.00 Build 0)  -->
<svg fill="white" version="1.1" id="Capa_1" xmlns="http://www.w3.org/2000/svg" xmlns:xlink="http://www.w3.org/1999/xlink" x="0px" y="0px"
	 viewBox="0 0 303.6 303.6" style="enable-background:new 0 0 303.6 303.6;" xml:space="preserve">
<g>
	<g>
		<path d="M303.486,40c-0.4-10.4-4.4-20.4-12-28c-8-8-18-12-28.8-12c-10.4,0-19.6,4-26.8,10.8l-208,208c-0.4,0.4-0.8,1.2-1.2,2
			c0,0.4,0,0.4-0.4,0.8c0,0.4-0.4,0.4-0.4,0.8l-10.8,57.2l-13.2,13.2c-2.4,2.4-2.4,6.4,0,8.8c1.2,1.2,2.8,2,4.4,2
			c1.6,0,3.2-0.8,4.4-2l13.2-13.2l57.2-10.8c0.4,0,0.4,0,0.8-0.4c0.4,0,0.4,0,0.8-0.4c0.8-0.4,1.2-0.8,1.6-1.2l188.8-188.8
			l18.8-18.8C299.886,60.4,303.886,50.8,303.486,40z M221.086,43.2l15.2,15.2l-180,180l-15.2-15.2L221.086,43.2z M36.286,236
			l11.2,11.2l-16.4,16.4L36.286,236z M39.886,272.4l16.4-16l11.2,11.2L39.886,272.4z M80.286,262.4l-15.2-15.2l180-180l15.2,15.2
			L80.286,262.4z M283.486,58.8l-14.4,14.4l-39.2-39.2l14.4-14.4c4.8-4.8,11.2-7.2,18-7.2c7.6,0,14.4,2.8,20,8.4
			c5.2,5.2,8.4,12,8.4,19.2C291.086,47.6,288.686,54,283.486,58.8z"/>
	</g>
</g>
<g>
</g>
<g>
</g>
<g>
</g>
<g>
</g>
<g>
</g>
<g>
</g>
<g>
</g>
<g>
</g>
<g>
</g>
<g>
</g>
<g>
</g>
<g>
</g>
<g>
</g>
<g>
</g>
<g>
</g>
</svg>
