<?xml version="1.0" encoding="iso-8859-1"?>
<!-- Generator: Adobe Illustrator 19.0.0, SVG Export Plug-In . SVG Version: 6.00 Build 0)  -->
<svg fill="white" version="1.1" id="Capa_1" xmlns="http://www.w3.org/2000/svg" xmlns:xlink="http://www.w3.org/1999/xlink" x="0px" y="0px"
	 viewBox="0 0 364.955 364.955" style="enable-background:new 0 0 364.955 364.955;" xml:space="preserve">
<g>
	<g>
		<path d="M360,342.478H36l77.6-32.8c0.8,0,1.6-0.8,1.6-1.6l226.4-227.2c2.4-2.4,2.4-6.4,0-8.8l-60.8-60.8c-0.8-0.8-2.4-1.6-4-1.6
			c-1.6,0-3.2,0.8-4,1.6l-226.4,228c-0.8,0.8-0.8,1.6-1.6,1.6l-44,105.6c0,0.8,0,1.6-0.8,2.4c0,0.8,0,0.8,0,1.6c0,0,0,0,0,0.8
			s0.8,1.6,0.8,1.6c0.8,0.8,1.6,0.8,1.6,1.6c0.8,0,1.6,0.8,2.4,0.8h353.6c3.2,0,6.4-2.4,6.4-6.4
			C365.6,344.878,363.2,342.478,360,342.478z M111.2,296.078l-22.4-22.4l184-184l22.4,22.4L111.2,296.078z M277.6,24.878l52.8,52.8
			l-26.4,26.4l-52.8-52.8L277.6,24.878z M242.4,59.278l22.4,22.4l-184,184l-22.4-22.4L242.4,59.278z M52.8,253.678l48.8,48.8
			l-40.8,16.8l-25.6-24.8L52.8,253.678z M30.4,306.478l17.6,17.6l-30.4,12.8L30.4,306.478z"/>
	</g>
</g>
<g>
</g>
<g>
</g>
<g>
</g>
<g>
</g>
<g>
</g>
<g>
</g>
<g>
</g>
<g>
</g>
<g>
</g>
<g>
</g>
<g>
</g>
<g>
</g>
<g>
</g>
<g>
</g>
<g>
</g>
</svg>
