<?xml version="1.0" encoding="iso-8859-1"?>
<!-- Generator: Adobe Illustrator 19.0.0, SVG Export Plug-In . SVG Version: 6.00 Build 0)  -->
<svg fill="white" version="1.1" id="Capa_1" xmlns="http://www.w3.org/2000/svg" xmlns:xlink="http://www.w3.org/1999/xlink" x="0px" y="0px"
	 viewBox="0 0 360.8 360.8" style="enable-background:new 0 0 360.8 360.8;" xml:space="preserve">
<g>
	<g>
		<path d="M119.413,283.2c10.4-7.2,16.8-19.2,16.8-32.8c0-22.4-18.4-40.8-40.8-40.8s-40.8,18.4-40.8,40.8c0,13.6,6.4,25.6,16.8,32.8
			c-29.6,10.4-51.2,38.4-51.2,71.2c-1.6,3.2,1.6,6.4,4.8,6.4h139.2c3.2,0,6.4-2.4,6.4-6.4
			C170.613,320.8,149.013,292.8,119.413,283.2z M65.013,250.4c0-16,12.8-28.8,28.8-28.8s28.8,12.8,28.8,28.8s-12.8,28.8-28.8,28.8
			S65.013,266.4,65.013,250.4z M31.413,348.8c3.2-32,30.4-57.6,63.2-57.6s60,25.6,63.2,57.6H31.413z"/>
	</g>
</g>
<g>
	<g>
		<path d="M289.813,283.2c10.4-7.2,16.8-19.2,16.8-32.8c0-22.4-18.4-40.8-40.8-40.8c-24-0.8-42.4,17.6-42.4,40.8
			c0,13.6,6.4,25.6,16.8,32.8c-29.6,10.4-51.2,38.4-51.2,71.2c0,3.2,2.4,6.4,6.4,6.4h139.2c3.2,0,6.4-2.4,6.4-6.4
			C341.013,320.8,319.413,292.8,289.813,283.2z M235.413,249.6c0-15.2,12.8-28.8,28.8-28.8s28.8,12.8,28.8,28.8
			s-12.8,28.8-28.8,28.8S235.413,265.6,235.413,249.6z M201.013,348.8c3.2-32,30.4-57.6,63.2-57.6c32.8,0,60,25.6,63.2,57.6H201.013
			z"/>
	</g>
</g>
<g>
	<g>
		<path d="M204.213,73.6c10.4-7.2,16.8-19.2,16.8-32.8c0-22.4-18.4-40.8-40.8-40.8c-22.4,0-40.8,18.4-40.8,40.8
			c0,13.6,6.4,25.6,16.8,32.8c-29.6,10.4-51.2,38.4-51.2,71.2c-0.8,3.2,1.6,6.4,4.8,6.4h139.2c3.2,0,6.4-2.4,6.4-6.4
			C255.413,111.2,233.813,83.2,204.213,73.6z M150.613,40.8c0-16,12.8-28.8,28.8-28.8s28.8,12.8,28.8,28.8s-12.8,28.8-28.8,28.8
			S150.613,56.8,150.613,40.8z M116.213,139.2c3.2-32.8,30.4-57.6,63.2-57.6s60,25.6,63.2,57.6H116.213z"/>
	</g>
</g>
<g>
</g>
<g>
</g>
<g>
</g>
<g>
</g>
<g>
</g>
<g>
</g>
<g>
</g>
<g>
</g>
<g>
</g>
<g>
</g>
<g>
</g>
<g>
</g>
<g>
</g>
<g>
</g>
<g>
</g>
</svg>
