<?xml version="1.0" encoding="iso-8859-1"?>
<!-- Generator: Adobe Illustrator 19.0.0, SVG Export Plug-In . SVG Version: 6.00 Build 0)  -->
<svg fill="white" version="1.1" id="Capa_1" xmlns="http://www.w3.org/2000/svg" xmlns:xlink="http://www.w3.org/1999/xlink" x="0px" y="0px"
	 viewBox="0 0 405.755 405.755" style="enable-background:new 0 0 405.755 405.755;" xml:space="preserve">
<g>
	<g>
		<path d="M314.906,66.555c-26.4-26.4-61.6-40.8-98.4-40.8c-37.6,0-72,14.4-98.4,40.8c-26.4,26.4-40.8,61.6-40.8,98.4
			c0,37.6,14.4,72,40.8,98.4c26.4,26.4,61.6,40.8,98.4,40.8c37.6,0,72-14.4,98.4-40.8c26.4-26.4,40.8-61.6,40.8-98.4
			C355.706,127.355,341.306,92.955,314.906,66.555z M342.906,148.155c-9.6,2.4-20,5.6-29.6,10.4c-8.8-16-20.8-32-34.4-47.2
			l32.8-32.8C328.506,98.555,339.706,122.555,342.906,148.155z M208.506,164.955l-44.8,44.8c-12.8-13.6-23.2-27.2-31.2-40.8
			c16-8.8,31.2-20,45.6-33.6L208.506,164.955z M186.106,126.555c13.6-14.4,24.8-29.6,33.6-45.6c14.4,8,28,18.4,40.8,31.2l-44,44.8
			L186.106,126.555z M216.506,172.955l32.8,33.6c-13.6,13.6-24.8,28.8-33.6,44c-15.2-8-30.4-19.2-44-32.8L216.506,172.955z
			 M225.306,164.955l44.8-44.8c13.6,13.6,24,28.8,32.8,44c-15.2,8.8-30.4,20-44.8,33.6L225.306,164.955z M236.506,39.355
			c24.8,4,47.2,14.4,65.6,32l-32.8,32.8c-13.6-13.6-28.8-24-44-32.8C230.906,60.155,234.106,49.755,236.506,39.355z M216.506,37.755
			c2.4,0,5.6,0,8,0c-2.4,8.8-4.8,17.6-9.6,27.2c-19.2-8.8-37.6-14.4-54.4-14.4C178.106,42.555,196.506,37.755,216.506,37.755z
			 M160.506,62.555c15.2,0,32,4.8,48.8,12.8c-8,14.4-19.2,28.8-31.2,42.4l-46.4-46.4C138.906,65.755,148.506,62.555,160.506,62.555z
			 M122.906,80.155l46.4,46.4c-13.6,12.8-28,23.2-42.4,32C111.706,127.355,109.306,98.555,122.906,80.155z M89.306,164.955
			c0-20,4.8-38.4,12.8-56c0,16.8,4.8,35.2,14.4,54.4c-8.8,4-18.4,7.2-26.4,9.6C89.306,170.555,89.306,168.155,89.306,164.955z
			 M90.906,184.955c10.4-2.4,20.8-5.6,31.2-10.4c8.8,15.2,19.2,29.6,32.8,44l-32.8,32
			C105.306,232.155,94.906,209.755,90.906,184.955z M199.706,291.355c-25.6-3.2-49.6-14.4-68.8-32l32.8-32.8
			c15.2,14.4,31.2,25.6,47.2,34.4C206.106,271.355,202.106,281.755,199.706,291.355z M216.506,292.955c-1.6,0-3.2,0-4.8,0
			c2.4-8.8,5.6-16.8,9.6-25.6c17.6,8,35.2,12.8,51.2,12.8C255.706,288.155,236.506,292.955,216.506,292.955z M272.506,267.355
			c-14.4,0-29.6-4-45.6-11.2c8-14.4,18.4-28,31.2-41.6l44,44C294.106,264.955,284.506,267.355,272.506,267.355z M310.906,250.555
			l-44.8-44c12.8-12.8,27.2-23.2,41.6-31.2c3.2,7.2,5.6,13.6,7.2,20C321.306,218.555,319.706,237.755,310.906,250.555z
			 M331.706,220.955c0-8.8-1.6-18.4-4-28.8c-2.4-7.2-4.8-15.2-8.8-22.4c8.8-4,16.8-7.2,25.6-9.6c-0.8,1.6,0,3.2,0,4.8
			C344.506,184.955,339.706,204.155,331.706,220.955z"/>
	</g>
</g>
<g>
	<g>
		<path d="M313.306,296.955c-1.6-2.4-5.6-3.2-8-1.6c-25.6,17.6-56,26.4-87.2,26.4c-86.4,0-156.8-70.4-156.8-156.8
			c0-73.6,52-137.6,124-152.8c3.2-0.8,5.6-4,4.8-7.2c-0.8-3.2-4-5.6-7.2-4.8c-76.8,16.8-132.8,85.6-132.8,164.8
			c-2.4,91.2,70.4,165.6,160,168.8c-33.6,3.2-59.2,31.2-59.2,65.6c0,3.2,2.4,6.4,6.4,6.4h119.2c3.2,0,6.4-2.4,6.4-6.4
			c0-33.6-25.6-61.6-58.4-65.6c31.2-1.6,61.6-11.2,87.2-28.8C314.106,303.355,314.906,299.355,313.306,296.955z M270.106,392.955
			h-106.4c3.2-26.4,25.6-48,53.6-48C244.506,344.955,266.906,365.755,270.106,392.955z"/>
	</g>
</g>
<g>
</g>
<g>
</g>
<g>
</g>
<g>
</g>
<g>
</g>
<g>
</g>
<g>
</g>
<g>
</g>
<g>
</g>
<g>
</g>
<g>
</g>
<g>
</g>
<g>
</g>
<g>
</g>
<g>
</g>
</svg>
