<?xml version="1.0" encoding="iso-8859-1"?>
<!-- Generator: Adobe Illustrator 19.0.0, SVG Export Plug-In . SVG Version: 6.00 Build 0)  -->
<svg version="1.1" id="Capa_1" xmlns="http://www.w3.org/2000/svg" xmlns:xlink="http://www.w3.org/1999/xlink" x="0px" y="0px"
	 viewBox="0 0 335.4 335.4" style="enable-background:new 0 0 335.4 335.4;" xml:space="preserve">
<g>
	<g>
		<path d="M331,32c-2.4-0.8-5.2-0.4-6.8,1.2L39.4,318c-2,2-2.4,4.4-1.2,6.8c0.8,2.4,3.2,4,6,4H329c3.6,0,6.4-2.8,6.4-6.4V38
			C335,35.2,333.4,32.8,331,32z M322.2,105.6h-28.4c-3.6,0-6.4,2.8-6.4,6.4s2.8,6.4,6.4,6.4h28.4V150h-18.8c-3.6,0-6.4,2.8-6.4,6.4
			c0,3.6,2.8,6.4,6.4,6.4h18.8v26.8h-28.4c-3.6,0-6.4,2.8-6.4,6.4c0,3.6,2.8,6.4,6.4,6.4h28.4V234h-18.8c-3.6,0-6.4,2.8-6.4,6.4
			c0,3.6,2.8,6.4,6.4,6.4h18.8v26.8h-28.4c-3.6,0-6.4,2.8-6.4,6.4c0,3.6,2.8,6.4,6.4,6.4h28.4V318H59v-1.6L322.2,53.2V105.6z"/>
	</g>
</g>
<g>
	<g>
		<path d="M272.2,167.2c-2.4-0.8-5.2-0.4-6.8,1.2L181.8,252c-2,2-2.4,4.4-1.2,6.8c0.8,2.4,3.2,4,6,4h83.2c3.6,0,6.4-2.8,6.4-6.4
			v-83.2C275.8,170.4,274.6,168.4,272.2,167.2z M263.4,250h-62l62-61.6V250z"/>
	</g>
</g>
<g>
	<g>
		<path d="M295.4,8.4C293,6,289,6,286.6,8.4L1.8,292.8c-2.4,2.4-2.4,6.4,0,8.8c1.2,1.2,2.8,2,4.4,2c1.6,0,3.2-0.8,4.4-2L295.4,17.2
			C297.8,14.8,297.8,10.8,295.4,8.4z"/>
	</g>
</g>
<g>
</g>
<g>
</g>
<g>
</g>
<g>
</g>
<g>
</g>
<g>
</g>
<g>
</g>
<g>
</g>
<g>
</g>
<g>
</g>
<g>
</g>
<g>
</g>
<g>
</g>
<g>
</g>
<g>
</g>
</svg>
