<?xml version="1.0" encoding="iso-8859-1"?>
<!-- Generator: Adobe Illustrator 19.0.0, SVG Export Plug-In . SVG Version: 6.00 Build 0)  -->
<svg version="1.1" id="Capa_1" xmlns="http://www.w3.org/2000/svg" xmlns:xlink="http://www.w3.org/1999/xlink" x="0px" y="0px"
	 viewBox="0 0 410 410" style="enable-background:new 0 0 410 410;" xml:space="preserve">
<g>
	<g>
		<path d="M409.4,107.8l-43.2-82.4c-0.8-1.6-3.2-3.2-5.6-3.2H50.2c-2.4,0-4,1.6-5.6,3.2l-44,82.4c-0.8,1.6-0.8,4,0,5.6
			c1.6,2.4,3.2,3.2,5.6,3.2h39.2v264.8c0,3.2,2.4,6.4,6.4,6.4H147h116.8H359c3.2,0,6.4-2.4,6.4-6.4V116.6h39.2c2.4,0,4-0.8,4.8-3.2
			C410.2,111.8,410.2,109.4,409.4,107.8z M152.6,375v-88h104.8v88H152.6z M353.4,375h-83.2v-93.6c0-3.2-2.4-6.4-6.4-6.4H147
			c-3.2,0-6.4,2.4-6.4,6.4v94.4H57.4V116.6h296V375z M359,104.6H51H15.8l37.6-70.4h304l37.6,70.4H359z"/>
	</g>
</g>
<g>
	<g>
		<path d="M136.6,131H94.2c-3.2,0-6.4,2.4-6.4,6.4v42.4c0,3.2,3.2,6.4,6.4,6.4h42.4c3.2,0,6.4-2.4,6.4-6.4v-42.4
			C143,134.2,140.6,131,136.6,131z M130.2,174.2H99.8v-30.4h30.4V174.2z"/>
	</g>
</g>
<g>
	<g>
		<path d="M227,131h-42.4c-3.2,0-6.4,2.4-6.4,6.4v42.4c0,3.2,3.2,6.4,6.4,6.4H227c3.2,0,6.4-2.4,6.4-6.4v-42.4
			C233.4,134.2,231,131,227,131z M220.6,174.2h-30.4v-30.4h30.4V174.2z"/>
	</g>
</g>
<g>
	<g>
		<path d="M317.4,131H275c-3.2,0-6.4,2.4-6.4,6.4v42.4c0,3.2,2.4,6.4,6.4,6.4h42.4c3.2,0,6.4-2.4,6.4-6.4v-42.4
			C323.8,134.2,321.4,131,317.4,131z M311,174.2h-30.4v-30.4H311V174.2z"/>
	</g>
</g>
<g>
	<g>
		<path d="M136.6,196.6H94.2c-3.2,0-6.4,2.4-6.4,6.4v42.4c0,4,3.2,6.4,6.4,6.4h42.4c3.2,0,6.4-2.4,6.4-6.4V203
			C143,199.8,140.6,196.6,136.6,196.6z M130.2,240.6H99.8v-30.4h30.4V240.6z"/>
	</g>
</g>
<g>
	<g>
		<path d="M227,196.6h-42.4c-3.2,0-6.4,2.4-6.4,6.4v42.4c0,4,3.2,6.4,6.4,6.4H227c3.2,0,6.4-2.4,6.4-6.4V203
			C233.4,199.8,231,196.6,227,196.6z M220.6,240.6h-30.4v-30.4h30.4V240.6z"/>
	</g>
</g>
<g>
	<g>
		<path d="M317.4,196.6H275c-3.2,0-6.4,2.4-6.4,6.4v42.4c0,4,2.4,6.4,6.4,6.4h42.4c3.2,0,6.4-2.4,6.4-6.4V203
			C323.8,199.8,321.4,196.6,317.4,196.6z M311,240.6h-30.4v-30.4H311V240.6z"/>
	</g>
</g>
<g>
</g>
<g>
</g>
<g>
</g>
<g>
</g>
<g>
</g>
<g>
</g>
<g>
</g>
<g>
</g>
<g>
</g>
<g>
</g>
<g>
</g>
<g>
</g>
<g>
</g>
<g>
</g>
<g>
</g>
</svg>
