<?xml version="1.0" encoding="iso-8859-1"?>
<!-- Generator: Adobe Illustrator 19.0.0, SVG Export Plug-In . SVG Version: 6.00 Build 0)  -->
<svg fill="white" version="1.1" id="Capa_1" xmlns="http://www.w3.org/2000/svg" xmlns:xlink="http://www.w3.org/1999/xlink" x="0px" y="0px"
	 viewBox="0 0 429.6 429.6" style="enable-background:new 0 0 429.6 429.6;" xml:space="preserve">
<g>
	<g>
		<path d="M216.4,180.8c-20,0-36.8,16.8-36.8,36.8s16,36.8,36.8,36.8c20,0,36.8-16.8,36.8-36.8S236.4,180.8,216.4,180.8z
			 M216.4,243.2c-13.6,0-24.8-11.2-24.8-24.8c0-14.4,11.2-24.8,24.8-24.8c13.6,0,24.8,11.2,24.8,24.8
			C241.2,232,230,243.2,216.4,243.2z"/>
	</g>
</g>
<g>
	<g>
		<path d="M385.2,288c0-12.8-10.4-24-24-24c-1.6,0-4,0-5.6,0.8c-8-15.2-18.4-31.2-30.4-47.2c16-21.6,28.8-42.4,38.4-62.4
			c18.4-40,20-71.2,3.2-87.2c-16-16-47.2-15.2-87.2,3.2c-0.8,0-1.6,0.8-2.4,0.8c-15.2-41.6-36-66.4-60-66.4c-3.2,0-6.4,0.8-9.6,1.6
			c-4-4-10.4-7.2-16.8-7.2c-12.8,0-24,10.4-24,24c0,5.6,2.4,11.2,5.6,15.2c-5.6,9.6-11.2,20.8-16,33.6c-40-18.4-72.8-21.6-89.6-4.8
			c-24.8,24.8-6.4,84.8,41.6,149.6C94,236.8,82,256.8,73.2,275.2c-1.6,0-3.2-0.8-4.8-0.8c-12.8,0-24,10.4-24,24
			c0,8.8,4.8,16.8,12,20.8c-4,21.6-0.8,38.4,9.6,48.8c8,8,18.4,11.2,32,11.2c16,0,36-5.6,58.4-16c15.2,41.6,36,66.4,60,66.4
			s45.6-25.6,60-66.4c21.6,10.4,41.6,16,58.4,16c12.8,0,24-4,32-11.2c12-12,14.4-32.8,7.2-60C380.4,304,385.2,296.8,385.2,288z
			 M357.2,76.8c18.4,18.4,4,70.4-40.8,132c-6.4-8-12.8-16-20-24c-2.4-37.6-8-72-16.8-100C316.4,67.2,345.2,64,357.2,76.8z
			 M309.2,218.4c-4,4.8-7.2,9.6-11.2,14.4c0-4.8,0-9.6,0-14.4c0-4.8,0-9.6,0-14.4C302,208.8,306,213.6,309.2,218.4z M286.8,217.6
			c0,9.6,0,19.2-0.8,28.8c-6.4,7.2-12.8,13.6-20,20.8c-16.8,16.8-33.6,31.2-49.6,44c-16-12.8-32.8-27.2-49.6-44
			c-7.2-6.4-13.6-13.6-20-20.8c-0.8-9.6-0.8-18.4-0.8-28.8c0-9.6,0-19.2,0.8-28.8c6.4-7.2,12.8-14.4,20-20.8
			c16.8-16.8,33.6-31.2,49.6-44c16,12.8,32.8,27.2,49.6,44c7.2,7.2,13.6,13.6,20,20.8C286.8,198.4,286.8,207.2,286.8,217.6z
			 M284.4,170.4c-3.2-3.2-6.4-7.2-9.6-10.4c-16-16-32-30.4-48-43.2c15.2-11.2,29.6-20,43.2-28C276.4,112,281.2,139.2,284.4,170.4z
			 M190,12c6.4,0,12,5.6,12,12c0,6.4-5.6,12-12,12c-6.4,0-12-5.6-12-12C178,17.6,183.6,12,190,12z M181.2,46.4
			c2.4,0.8,5.6,1.6,8.8,1.6c12.8,0,24-10.4,24-24c0-1.6,0-4-0.8-5.6c0.8,0,2.4,0,3.2,0c17.6,0,36,21.6,49.6,60
			c-16,8.8-32.8,19.2-49.6,32c-16.8-12.8-33.6-23.2-49.6-31.2C170.8,65.6,175.6,55.2,181.2,46.4z M162.8,89.6
			c13.6,7.2,28,16.8,43.2,28c-16,12.8-32.8,27.2-48,42.4c-3.2,3.2-6.4,7.2-9.6,10.4C150.8,140.8,155.6,112.8,162.8,89.6z M74.8,76.8
			c12.8-12.8,40.8-9.6,77.6,7.2c-8.8,28.8-14.4,63.2-16.8,100c-7.2,8-13.6,16-20,24C70.8,147.2,56.4,95.2,74.8,76.8z M134,203.2
			c0,4.8,0,9.6,0,14.4c0,5.6,0,9.6,0,14.4c-4-4.8-8-9.6-11.2-14.4C126.8,212.8,130,208,134,203.2z M55.6,299.2c0.8-7.2,5.6-12,12-12
			c6.4,0,12,5.6,12,12c0,6.4-5.6,12-12,12C61.2,311.2,55.6,305.6,55.6,299.2z M74.8,359.2c-8.8-8.8-8.8-24-6.4-37.6
			c12.8,0,23.2-10.4,23.2-24c0-7.2-3.2-13.6-8.8-17.6c8.8-16,19.2-34.4,32.8-52c6.4,8,12.8,16,20,23.2c2.4,37.6,8,72,16.8,100.8
			C116.4,369.6,87.6,372,74.8,359.2z M148.4,265.6c3.2,3.2,6.4,7.2,9.6,10.4c16,16,32,30.4,48,43.2c-15.2,11.2-29.6,20-43.2,28
			C156.4,324,150.8,296.8,148.4,265.6z M216.4,418.4c-17.6,0-36-21.6-49.6-60c16-8,32.8-19.2,49.6-32c16.8,12.8,33.6,23.2,49.6,32
			C252.4,396,234,418.4,216.4,418.4z M269.2,346.4c-13.6-7.2-28-16.8-43.2-28c16-12.8,32-27.2,48-43.2c3.2-3.2,6.4-7.2,9.6-10.4
			C281.2,296.8,276.4,324,269.2,346.4z M358,360.8c-12.8,12.8-40.8,9.6-77.6-7.2c8.8-28,14.4-62.4,16.8-100.8c7.2-8,13.6-16,20-23.2
			c10.4,12.8,19.2,27.2,27.2,41.6c-4.8,4-8,10.4-8,17.6c0,12.8,10.4,24,24,24c0.8,0,0.8,0,1.6,0C368.4,334.4,366.8,352,358,360.8z
			 M364.4,300c-0.8,0-2.4,0.8-4,0.8c-6.4,0-12-5.6-12-12c0-7.2,5.6-12,12-12c6.4,0,12,5.6,12,12C372.4,293.6,369.2,298.4,364.4,300z
			"/>
	</g>
</g>
<g>
</g>
<g>
</g>
<g>
</g>
<g>
</g>
<g>
</g>
<g>
</g>
<g>
</g>
<g>
</g>
<g>
</g>
<g>
</g>
<g>
</g>
<g>
</g>
<g>
</g>
<g>
</g>
<g>
</g>
</svg>
