<?xml version="1.0" encoding="iso-8859-1"?>
<!-- Generator: Adobe Illustrator 19.0.0, SVG Export Plug-In . SVG Version: 6.00 Build 0)  -->
<svg fill="white" version="1.1" id="Capa_1" xmlns="http://www.w3.org/2000/svg" xmlns:xlink="http://www.w3.org/1999/xlink" x="0px" y="0px"
	 viewBox="0 0 368.4 368.4" style="enable-background:new 0 0 368.4 368.4;" xml:space="preserve">
<g>
	<g>
		<path d="M322.2,194.4c-3.2-4-6.8-8-10.4-12c3.6-4,7.2-8,10.4-12c11.2-14,18.8-27.6,22.8-40c2.4-7.6,3.6-14.8,3.2-21.6
			c-0.4-7.2-2.4-13.6-5.6-19.2c-6.4-10.8-20.8-23.2-53.2-23.2c-12.4,0-26.4,2-41.2,5.6c-14.4-44.4-37.2-72-64-72
			c-27.2,0-50,28.4-64.4,73.6c-2.8-0.4-5.2-1.2-7.6-1.6c-2.4-14.4-15.2-25.2-30-25.2c-15.2,0-27.6,11.2-30,25.6
			c-16,4.8-24,13.6-28,20.8c-11.6,20.4-4,49.2,22,80.4c3.2,4,6.8,8,10.4,12c-3.6,4-7.2,8-10.4,12c-25.2,32-32.4,60.8-20,80.8
			c6.4,10.8,20.8,23.2,53.2,23.2c12.4,0,26.4-2,41.2-5.2c14,44.4,37.2,72,63.6,72c27.2,0,50-28.4,64.4-73.6
			c14.4,3.2,28.4,4.8,40.4,4.8c34.4,0,49.2-13.2,55.2-24.4C355.8,254.4,348.2,226,322.2,194.4z M247.4,130c-7.6-5.2-15.6-10-24-14.8
			c-8.4-4.8-16.8-9.2-25.2-13.2c14-6,27.6-11.2,40.8-14.8C242.6,100.4,245.4,114.8,247.4,130z M184.2,12.4
			c20.8,0,39.2,24.4,51.6,62.4c-16.8,4.8-34.4,11.6-52.4,20c-17.2-7.6-34.4-14-50.8-18.4C144.6,37.6,163.4,12.4,184.2,12.4z
			 M129,88.4c12.8,3.6,26,8,39.6,13.6c-8.4,4.4-16.4,8.8-24.8,13.6c-8,5.2-15.6,10-22.8,14.8C123,115.6,125.4,101.6,129,88.4z
			 M82.2,59.2c10,0,18,8,18,18s-8,18-18,18s-18-8-18-18C64.2,67.6,72.2,59.2,82.2,59.2z M55.8,165.6C33.4,138.4,26.2,114.8,35,99.2
			c3.6-6,9.6-10.8,17.6-14C56.2,98.4,68.2,108,82.2,108c14.4,0,26.4-10,29.6-23.2c1.6,0.4,3.2,0.4,4.8,0.8
			c-4.4,16.4-7.6,34.8-9.6,54.8c-15.6,11.6-30,23.6-42,36C61.8,172.4,58.6,169.2,55.8,165.6z M105.8,212c-11.6-8.8-22.4-18-32-27.2
			c9.2-9.6,20-18.8,32-28c-0.4,8.8-0.8,17.6-0.8,26.8C105,193.6,105.4,203.2,105.8,212z M79.4,288.8c-26.4,0-37.6-9.2-42.4-17.2
			c-9.2-15.6-2.4-39.2,19.2-66.8c2.8-3.6,6-7.2,9.2-10.8c12,11.6,26.4,23.2,42,34.4c2,20,5.2,38.8,10,55.6
			C103.4,287.2,90.6,288.8,79.4,288.8z M121,238c7.6,5.2,15.6,10,24,14.8c8.4,4.8,16.8,9.2,25.2,13.2c-14,6-27.6,11.2-40.8,14.8
			C125.8,267.6,123,253.2,121,238z M184.2,355.6c-20.8,0-39.2-24.4-51.6-62.4c16.8-4.8,34.4-11.6,52.4-20
			c17.6,7.6,34.8,14,50.8,18.4C223.8,330.4,205,355.6,184.2,355.6z M239.4,279.6c-12.8-3.6-26-8-39.6-13.6
			c8.4-4.4,16.4-8.8,24.8-13.6c8-5.2,15.6-10,22.8-14.8C245.4,252.4,243,266.8,239.4,279.6z M249,220.8c-9.6,7.2-20,14-30.8,20.4
			c-11.2,6.8-22.4,12.4-33.2,18c-11.2-5.2-22.4-10.8-33.6-17.2s-22-13.2-32-20c-1.2-12-1.6-24.8-1.6-37.6c0-12.8,0.4-25.2,1.6-36.8
			c10-7.2,20-14,30.8-20.4c11.2-6.8,22.4-12.4,33.2-18c11.2,5.2,22.4,10.8,33.6,17.2c11.2,6.4,22,13.2,32,20
			c1.2,12,1.6,24.8,1.6,37.6S250.2,209.2,249,220.8z M289,79.2c26.4,0,37.6,9.2,42.4,17.2c2.4,4,3.6,8.4,4,13.6
			c0.4,5.2-0.4,10.8-2.4,17.2c-3.6,11.2-10.4,23.2-20.8,36c-2.8,3.6-6,7.2-9.2,10.8c-12-11.6-26.4-23.2-42-34.4
			c-2-20-5.2-38.8-10-55.6C265,80.8,277.8,79.2,289,79.2z M262.6,156c11.6,8.8,22.4,18,32,27.2c-9.2,9.6-20,18.8-32,28
			c0.4-8.8,0.8-17.6,0.8-26.8C263.4,174.4,263,164.8,262.6,156z M333.4,268.8c-6.8,12-22,18-44.4,18c-11.2,0-23.6-1.6-36.8-4.4
			c4.4-16.4,7.6-34.8,9.6-54.8c15.6-11.6,30-23.6,42-36c3.2,3.6,6.4,7.2,9.2,10.8C335,229.6,342.2,253.2,333.4,268.8z"/>
	</g>
</g>
<g>
	<g>
		<path d="M184.2,145.2c-21.2,0-38.8,17.2-38.8,38.8c0,21.2,17.2,38.8,38.8,38.8c21.2,0,38.8-17.2,38.8-38.8
			C223,162.8,205.4,145.2,184.2,145.2z M184.2,210c-14.4,0-26-11.6-26-26c0-14.4,11.6-26,26-26c14.4,0,26,11.6,26,26
			C210.2,198.4,198.6,210,184.2,210z"/>
	</g>
</g>
<g>
</g>
<g>
</g>
<g>
</g>
<g>
</g>
<g>
</g>
<g>
</g>
<g>
</g>
<g>
</g>
<g>
</g>
<g>
</g>
<g>
</g>
<g>
</g>
<g>
</g>
<g>
</g>
<g>
</g>
</svg>
