<?xml version="1.0" encoding="iso-8859-1"?>
<!-- Generator: Adobe Illustrator 19.0.0, SVG Export Plug-In . SVG Version: 6.00 Build 0)  -->
<svg fill="white" version="1.1" id="Capa_1" xmlns="http://www.w3.org/2000/svg" xmlns:xlink="http://www.w3.org/1999/xlink" x="0px" y="0px"
	 viewBox="0 0 417.2 417.2" style="enable-background:new 0 0 417.2 417.2;" xml:space="preserve">
<g>
	<g>
		<path d="M272.6,184.4v-41.6c4.8-4.4,8-11.2,8-18.4c0-13.2-10-24-22-24h-48c4.8-3.2,8-8.4,8-14.8c0-9.6-8-17.6-17.6-17.6
			c-9.6,0-17.6,8-17.6,17.6c0,6.4,3.2,11.6,8,14.8h-40c-12,0-22,10.8-22,24c0,7.6,3.2,14.4,8.4,18.8v42
			c-33.6,23.2-54.4,64-54.4,106.8c0,68.8,56,125.2,125.2,125.2c68.8,0,125.2-56,125.2-125.2C333.8,247.6,310.6,207.2,272.6,184.4z
			 M201,80.4c2.8,0,5.2,2.4,5.2,5.2c0,2.8-2.4,5.2-5.2,5.2c-2.8,0-5.2-2.4-5.2-5.2C195.8,82.8,198.2,80.4,201,80.4z M208.6,404.4
			c-62,0-112.4-50.4-112.4-112.4c0-39.2,20-77.6,51.2-98c1.6-1.2,2.8-3.2,2.8-5.2V140c0-2.4-1.2-4.4-3.2-5.6c-3.2-2-5.2-6-5.2-10.4
			c0-6.4,4.4-11.6,9.6-11.6h107.2c5.2,0,9.6,5.2,9.6,11.6c0,4.4-2,8-5.2,10c-2,1.2-2.8,3.2-2.8,5.2v48.4c0,2.4,1.2,4.4,3.2,5.6
			c35.6,20,57.6,57.6,57.6,98C321,354,270.6,404.4,208.6,404.4z"/>
	</g>
</g>
<g>
	<g>
		<path d="M297,288.4c-1.6-1.2-3.6-1.6-5.2-1.2c-7.2,1.6-17.2,2.4-29.6,2.4c-20.8,0-40.4-2.4-41.6-2.4c-0.4,0-0.8-0.4-1.2-0.4
			c-3.2-0.4-6-1.2-8.8-1.6c-2-0.4-4.4-0.8-7.6-1.2c-5.6-0.8-7.6-1.2-8.4-1.2c-3.2-0.4-6.8-0.8-10-0.8c-0.4,0-0.4,0-0.8,0
			c-13.6-0.8-25.2-0.4-25.2-0.4c-20.8,0.8-35.6,3.6-36,3.6c-2.8,0.4-5.2,3.2-5.2,6c0,50,40.8,90.8,90.8,90.8
			c48.8,0,89.6-40,90.8-88.8C299.4,291.6,298.6,289.6,297,288.4z M208.6,369.6c-41.6,0-75.6-32.4-78-72.8c6-0.8,16-2,28.8-2.4
			c0,0,10.8-0.4,23.6,0.4h0.4c3.2,0.4,6.8,0.4,10,0.8h0.4c1.6,0,11.6,1.6,13.6,2c0.4,0,0.4,0,0.8,0c2.8,0.4,6,1.2,9.2,1.6
			c5.2,1.2,26,2.8,44.8,2.8c9.2,0,17.6-0.4,24.4-1.2C281.4,339.6,248.2,369.6,208.6,369.6z"/>
	</g>
</g>
<g>
	<g>
		<path d="M190.2,0c-13.6,0-24.8,11.2-24.8,24.8c0,13.6,10.8,24.8,24.8,24.8c13.6,0,24.8-11.2,24.8-24.8C215,11.2,203.8,0,190.2,0z
			 M190.2,37.2c-6.8,0-12.4-5.6-12.4-12.4c0-6.8,5.6-12.4,12.4-12.4c6.8,0,12.4,5.6,12.4,12.4C202.6,31.6,197,37.2,190.2,37.2z"/>
	</g>
</g>
<g>
	<g>
		<path d="M235.8,37.2c-12,0-21.6,9.6-21.6,21.6s9.6,21.6,21.6,21.6s21.6-9.6,21.6-21.6S247.8,37.2,235.8,37.2z M235.8,68
			c-5.2,0-9.2-4-9.2-9.2c0-5.2,4.4-9.2,9.2-9.2c5.2,0,9.2,4,9.2,9.2C245,64,241,68,235.8,68z"/>
	</g>
</g>
<g>
</g>
<g>
</g>
<g>
</g>
<g>
</g>
<g>
</g>
<g>
</g>
<g>
</g>
<g>
</g>
<g>
</g>
<g>
</g>
<g>
</g>
<g>
</g>
<g>
</g>
<g>
</g>
<g>
</g>
</svg>
