<?xml version="1.0" encoding="iso-8859-1"?>
<!-- Generator: Adobe Illustrator 19.0.0, SVG Export Plug-In . SVG Version: 6.00 Build 0)  -->
<svg version="1.1" id="Capa_1" xmlns="http://www.w3.org/2000/svg" xmlns:xlink="http://www.w3.org/1999/xlink" x="0px" y="0px"
	 viewBox="0 0 327.2 327.2" style="enable-background:new 0 0 327.2 327.2;" xml:space="preserve">
<g>
	<g>
		<path d="M303.6,197.6v-184c0-3.6-2.8-6.4-6.4-6.4H30c-3.6,0-6.4,2.8-6.4,6.4v184C10.4,198,0,207.2,0,218.8
			C0,230.4,10.8,240,24.4,240h80.8l-32,71.2c-1.6,3.2,0,6.8,3.2,8.4c0.8,0.4,1.6,0.4,2.4,0.4c2.4,0,4.8-1.2,5.6-3.6l34.4-76.4h89.6
			l34.4,76.4c1.2,2.4,3.2,3.6,5.6,3.6c0.8,0,1.6,0,2.4-0.4c3.2-1.6,4.4-5.2,3.2-8.4L222,240h80.8c13.2,0,24.4-9.6,24.4-21.2
			C327.2,207.2,316.8,197.6,303.6,197.6z M36,19.6h255.2v177.6h-14V42c0-3.6-2.8-6.4-6.4-6.4H56.4c-3.6,0-6.4,2.8-6.4,6.4v155.2H36
			V19.6z M264.4,48.4v149.2H62.8V48.4H264.4z M302.8,227.2h-90.4h-188c-6.4,0-11.6-4-11.6-8.8s5.2-8.8,11.6-8.8h278.8
			c6.4,0,11.6,4,11.6,8.8S309.2,227.2,302.8,227.2z"/>
	</g>
</g>
<g>
	<g>
		<path d="M144.8,70.4h-48c-3.6,0-6.4,2.8-6.4,6.4s2.8,6.4,6.4,6.4h48c3.6,0,6.4-2.8,6.4-6.4S148.4,70.4,144.8,70.4z"/>
	</g>
</g>
<g>
	<g>
		<path d="M230.4,101.6H96.8c-3.6,0-6.4,2.8-6.4,6.4c0,3.6,2.8,6.4,6.4,6.4h133.6c3.6,0,6.4-2.8,6.4-6.4
			C236.8,104.4,234,101.6,230.4,101.6z"/>
	</g>
</g>
<g>
	<g>
		<path d="M230.4,132.4H96.8c-3.6,0-6.4,2.8-6.4,6.4s2.8,6.4,6.4,6.4h133.6c3.6,0,6.4-2.8,6.4-6.4S234,132.4,230.4,132.4z"/>
	</g>
</g>
<g>
</g>
<g>
</g>
<g>
</g>
<g>
</g>
<g>
</g>
<g>
</g>
<g>
</g>
<g>
</g>
<g>
</g>
<g>
</g>
<g>
</g>
<g>
</g>
<g>
</g>
<g>
</g>
<g>
</g>
</svg>
